<mxfile host="app.diagrams.net" modified="2022-01-09T12:07:38.284Z" agent="5.0 (Windows NT 10.0; Win64; x64) AppleWebKit/537.36 (KHTML, like Gecko) Chrome/97.0.4692.71 Safari/537.36" etag="54BWxShhOhDPC93wyB48" version="16.2.4" type="github">
  <diagram id="sZcYdEvJaQE7oXlkHG2B" name="Page-1">
    <mxGraphModel dx="1278" dy="1685" grid="1" gridSize="10" guides="1" tooltips="1" connect="1" arrows="1" fold="1" page="1" pageScale="1" pageWidth="850" pageHeight="1100" math="0" shadow="0">
      <root>
        <mxCell id="0" />
        <mxCell id="1" parent="0" />
        <mxCell id="_N87Q6iRUAjB1oRdDqeh-1" value="" style="shape=image;verticalLabelPosition=bottom;labelBackgroundColor=default;verticalAlign=top;aspect=fixed;imageAspect=0;image=data:image/png,iVBORw0KGgoAAAANSUhEUgAAAN4AAADjCAMAAADdXVr2AAABs1BMVEX///8AAADu7u7t7e339/f7+/v//wDy8vLh///8/Pz09PTg///4+Pjn///Kysrc//8zMzNISEgICAjX///t///h4eGhoaGzs7NnZ2f//+vx//////MQEBAXFxf//+P//51TWFhPXl8aHh7//6nI4eH//+H+//n+/+90cgD//6Hl2MD//5WFkpI7REO7s6kAAAWmvb6OoaKwqJ7PxrjT4eK709IwODehoZl2dmlzgYFjbW0nGgDGvK7//9K8xMTL6ut2dmelsrGBgQPa2gA4OAEkEwChoYf//812dnNqWTktKSL18efX1NBpZWGLg4BhYAC2tQEzIgAhGwEeHRLq5gFEQSBLU1KhoY//9bmLg3ZpYVPq5dOalIlXUUdISD4VCgA/My5wYmLw4cMtDQWYjnrl07W9tJuJe3esp6WVkY5jWVlyZ1N0XlZcVEJUTgFJQS+djwOioALNyQEqKARoZjXCwW41NALNyWDCrF6NhENjRgBJIQBzYRCEg1RLPBrb236ppl1iXTNIOQKpl1RuZT68oAPXwAZMSAGlo1TCwmiVlFf03QGrqQHCwQESFgFnUS4+LACanqi1AAAaoUlEQVR4nO2diX8TR5aA+5BonZZPjCxbNsaSsA0YMOYIGEMSsGMJk4AJPsBmWcHgsEOAALPZnQxJdnazm80k+ZO3Xr2q6qu6VS21bcjy5jfO61Z3UV+/qlevjq7WNBDTIAJKGjQLtCTRzAxoCdASoGVAS4JmkcvMNGhwp+lORHMlYtBEciIRmlyOJme4ktMCkuskT9oHvA94IXhmMJ65v3iGNynDn5TVKj8xWy9anjSTiCE0C9MjwjJFhGWKCHvmRDA90MStpju5tEguKZJLiOQ8ieAz9yfSeZ6Md7DGxFaLjf+neLE4BFMFz9xFJ+XASxsiKUM8KdAwKdDEkzJEUkbaToprskQyIhHhEKTJaa7k4slTfA7B1lQdQlokJ0mk4zxp7tLwTtSY96pZf9fwYnEI3kRaOARzl5yUlgaxQEBJgpIBLSe0BGgJ0DKg5YSWdN0ankhOJJKQJBI5OdU8fYha/ojN+h8SLxaHYEZzCCT/5LJqqVQnYvnxOsmToWE1TBLBekuUnFtLEI05BHKK1WWhwZ1pSSLJoEQcyVEtU2/Mnl4/v7GxcWX99OxmraTJkmszTxo+pH2KWgzLbNy7v6wT6SVC/rO8cXeqWIotT5q7NOxtjcmYp+8TsOERhwzrw/cfA+D7H7Wc2NL1YSIjbhnWty4Vq/HiRXQIdoRgGl6vougQBm4gnARwRN/YrMWRJw2qYTIDAkrOrSVAS7i1nLgh57o1MJGMJJFEUnsyLOB0Wzjo8PjjotV5nvYpakmYS6TOMbbtGzuNAZDGztI1XecGXC9X39eoxTqkc7gbJyxHNcl0LXFA/TxWwPcwamF0ur40oHllYIkV0d6Ncr1TPEnhTEYuCJJoOLRwLjG67i4fHEjjARpw5nzR9irt5QkrJIhbS4CSCNIkNwRqvkS0HUa3lJHSkWezgnz63WJnedIiPPPoUYv0mVuX0avoOwFwIAeRr3e29N5FLeN6SzrON7xVfs+iFlbx9JVQOo2UYFo8m7UIfY8gvLgKp4KTGqBFU+9pQadpX/UC3/hmNVMv1Uqkx1QleFELZ0JILlRTlPBEcsSvHCJ4pHPgbxC8YlLz9a7P3tvYWl5+cH/99FSxlomWnXgaBrdXCSsHBjEewdMPtqTTtCdY/VikRm7Sl5ubpKmPkqc9btYzK9Cz08fTCnjpB75Qe0a/sll8h6OWDPZbVYzHzeeWXv1esW5EilpUWqt4CqfVhXhOvxYslgSPONOth3XlPEX1HZ0JcfdAd0OJDtoQwPH2lnqHp+qq/57KM1dvGFqWg68p3hNFvEs6cSz/NDgA8ZU1uHKbAQ7rU3XjnYxasGy2bhVQEvryjrO7NNjNvOjww7p85nJ/o5YBiredU8TTGt4TpHATuJGZrYfmPkQt4YUzo83Sstk6YgmWrn/GeLy5aci8irdwqvRgArTWHSLvrcnTHeNpDcb3qK6Qpz3tzuase53jaV0Ykm88VMnTnjbrmTjwtHvI94j+++9S1BKL9TRtmfY51usKeHsZtSQzlyhed4d4g2C+3uWHdbt1CMpT0LhrpCFT9+CpJDmo/Dlzdn2DNgy9O12JDugMijfcu3X+7tRmPTRPeMMeDMJbA/cesIkgmApa3lELO/3SWNpmY6Qwo7TxeLMeNgjP87Pbzfq525yNAeo7RjtwjokJHCm9P1uMK2ox2sUzx1xwSLgsH+UMkyduOARsblZb4IW2VoZlYYSQAC2JoETTeKJsJZjFoOyFZWm4jCTSWNZtq+m2rhpaM8n9iU9MkHtnZoS+QfmkUQud1E2Kid6kmOhNJtNast6YVZIp6ckp/DM1O65ztuXj3d3HOaHeYjDQI8mvxMTEcs/xnh4o7nh8/2EdJ5+TYvI5iZPPrnbP7RCSjfWtZT0WYXBLXSbESwODvKxGst+f2OD2NkvG7OIVkdgvYOlAULOe0Lrux4Mm6JzTJV097KSvTxAoT7A5cCXT+AoMSNIhEXaUqMUaWIqTDUAGXZlNLiHf/aQi3cB2L6VzJwM9JODrfVRXjVqIf7Ea3XHR8WrmM9MK8g16zwcIHdyWXH4Qk9nYlEYt0uVp2kB8dDpWO0kjcAMDUDXzscFtSV3dQb7HddmSOSR1tnvEhIkekbmeTgVnzpckOTa3Kd9lJTxqPP0ryS/JBzSZp5vKzTqvdz2DZrIzSQ8gnjQEw2EzGblPMt0UT+qIBmkyy1OKeIkuRndQtdqHyGCg8cB8tP8QNInplEag8YT5HpuKUcsY0qlW+lA5RJMKCL+w9qmMmx3UA2oeCA7sN2FwUBa1WNTBGEwjTwpt1waMX/BRWfIfz9F8qYSeKxQv4EF0YeWra2mKY1CnIolasN3DmtcdQ8kksgVpjQeM/GHJPa2QzL/QKwP6GHR4Uf9zXVNp1nNbnqJpdrUvgyNheF09Y0QUArP0Elw4FlAIIuEN6C5f12U3Em1LEF5MEoLnj1qw6vHW9knncLo+snd4kvEfu9qlSe/zhBOvq0XGFUV1UqE9eULxrgCF9/VEgcfbPeu0Ey+GkgkSsd8aUbB9aSo16y48syOoGfHn+G7SmRDX6vql6HhYNscPjR0GIb7rsJAxeuQ9MzZ26Aane3YTBPXowyrqgq361yExpyNqkeAdHsoTSeWDhP/ST2RoiMU8+vMDVD6mB8sqawXak4bOyqZsrMU/hXLChzfWny1kC4Vsiko2yxQ8SpFfUin4P1KecdMd+AQPVeebI4tBh6n02xhtt1744cc73E+QKIAfjx0X4A+a8ALyvGR4B47i8aHdobO6sbu3nlEcjAjEk1rPh5fvR5yfON7qNp7oaWfYtpV0sYGc5QHVsRYZXgEYWEUjapZXOipQ96CUcjyMJGdecL7P0Xvq+kpAUNW2wGJ6HOo4kQmcAPPMDATgpSaugswBXn6O6hOUDvUFXvcIHzaWt1Y533PRVGydG4xPdpbFQM49yz8QaHK7tfSc/aRk5k9R/UKeuJk81q9TYL78YaqfzDO+VL6feZejHO/Asxl9V4QPwq0jmcRzinIZ0u4h3lWBV8gfC8SDtqGB5pvh3uVzKZ13zqFdIXR2KNZOs07xUjZeNhCvv//ysS8FwE1X0xA/GMJdO21FmCFqH4/Y7oIL43NWNPHoYvx4kNhns4lWE2BiSidJegxt1z3yv7NOum9WmeOk8mr69atbVJvRnYUVMzpDTjpEZF4X3sOpz7BQVr/42QmYmLK3HhDF1OtVQqIWtN7cBZCTeWgjTlJ9juKdovoExTvuxPsYjfeG5uTO9Ojo6PTrv/zrtzf/Tf/3v37783cor2ieZ5597JRPgU8/tHJhZWWlG0cLV0BGsGP3Bcjvf/vts+YsZj3KctWgoCxFY0q73QMdWnVHE2jj3frp+csDTuO9HUV5+4oe3vl+9AiRycnRHyjezQNOOUrxMAwfo90BzDKiPpqdnW00GgOmlbGMyAs/ZHjEejxowSiFBil4QAIaiFpsvJmfXrwUbd4B7DJ8R9mmp7+1i+5bQjc6OvkWzDejf+LHu6wNDUGEDni0P5zspvqUZeFsalurceV4BSdelkUrDI8HZbzurTpyuvorGm+S4v3gLLyvAW908hU1yYsIeBE2NPGNcwbiMT4afWYZXpYdsYCb4Tkt8RL9yijF+9blVG5R5snXtDf6zIVHMUKsF7R/gW+c0+1f5FELFs4UrW52964fj5hkbbwZJx52976fBJK3ulu+o3ijd6B0zqyq43Xykk0QXnbuWJhMBFjvJiubk9R4mNyxC7iC+Db4m0laOt0lWgFPbTGKOl7qlB4mGLUc9+HRNv3XSYqHzd4xkucz41j7AO/I91T/r9Z4ud3Eu9oW3o/UTNRJTtMfh4dImR7CxP7DgfdcDU8PxpPNEIk5WT47m5DjFZTwfIVz9ZaNh1XvLAzc9F+m+t/B30wG4g0xPN0unCBTrTY0yYRtaBLgOdvD81uvlxgv5bAex/vPQDzdi2d08pJNEF7rupcPci3bk7SJw6Aa6l4DfctrB5677ulKeDE269mJU2GCvfVAz0nxfsYnMXZhCUPk27QxnPw7PVjdfbyQkLpQEOOcGLKgJvroKRsvQrtH4+w7Mjw9Ep7bvzjw7Df0LdQC8XhUVujjB1k8DSob5/TjYdTyA8ZkP7vobk0emSZ8/0MPPFFLKJ5j9ayV4OtTLbFSFdeUBbwaHNCdLdjjnBwJoAosAGVBmb9hQNeJHYbp6VdOvNdHCN70KJ57HgEv5qjFbb2sMFmKn85mnT0GXdJjeIV4jh7DHdJjADxWYu0bPvnl6K+t8WJs1g/nCUVfqp+JmE9waq7+3oz+K0HE3P4DT72dpnjTvL/3M3T3jnCDzrCyufr5zU9F1B0nntkKrzD3UYgcnnN3Z0FYb/1TevDNNKWbnhyd/sv3r99OHmF4/43X/sNZktvEk62l9r0akwvAU4o5pWMtaI4fKB2JoOHv6BGGh36FO5YXriQD8ZLKmyCojbUAXvZqOB61XthIGfJBC0H4GN5rdiUryC7jnT2zR1GLEh5rAedOfcSHtWbEOCfa785bxJvmeJO8oWBu8xNR7b5cAdPBbOEeRC1R8MDXnOlx2cQepf7WiTf5+g47Ldo8NpV7kJqt3zkb2i6ecuEsKNQ9FP8cg12nvn07Cj6GRDDfczj9jWgU2Hj2Ia1fSNuFU7ahCamt6SC8hZNhsmBP+PlmiJxzRLr+4w9EvrGP3/ivuzwk6GR4CeWtTTRhuLCohbZ7hVQKY0s2Vcum+nCIzDGd2X8V8+ga+/plJmCSaOaZM9hkzmVcC8XrJGqRDcIjHkYq2WxfH4SdFLLA45WCPWPrnZ1lDfYXcrzn7stYEHBwqBVeu1FLCJ4jKKN4XEvxcU5n4/DJAY+8cM8tUHnmu+qv+IM1FCde68LZ11fAgsiYqOE4HtiQ4eUndEnZZIC33XA3fXB81Fcfg+JJ473OCqfvRf1kAF4hm5fHnFSlc+vI9xGrVM/9fAdWX7CJ2pnt55/LfufkZ4RzkeCpb7Oi2jAQ4508ezxYuudE3Rv6SF6thPzvy5cBv6zy4mvTyfDijlpIF7Yvq9ru5YfC7Bcmq7xuOuhC8WKKWgBPvVnPt7RfAN22hK5DPNNlzSC8vih4Uvv9ElAgfxHuRdDNOek6LJy+HQJkriUaXt5hP+Y/X5JO36e/+NheHrVNzH2mPtGfb4Hn6xAFhi5qDUNE6zntB3yrR3UatPh8JYZmb6AvK3qyZ/pTrfDijloAr29hLkwWUi7J99v1TwTURz10YkXIzdXVW8Jn5gt5p/32IGqheLzlFsN/2QKcxXnprCMqY7EZ53tjxyoePM49o9/mDT6pdwQvHzOeQuFkYUvWjloKfXi64Fwv6ONzBmKeKOWmr4iDV8lnVfAUC6dvhCLIc/b1sUizIITjFWR4Wdt+QjyB2hsfHY2Dsq3qXoQdHg2VFYEpTkeN5uYrBOA56x+dMtDFKixv1XPT2aua1ds92SC8qd6sY9mkec5DPaPLO1MipE7lvXjYC+znLwJeOENf49uWVL1jl8966ArR8TqMWoDu5PjZYBmfw5jatfiF269nrn8Ic/bmU4fwsej+Y8MOunw+TrzYopZU1rkOWax9+UgfP0W6g/3HAu4bX8jnh86QpzBHJ5yiWc9s+dEY5+QQbDggHcaNjpcS/b9TC3QF6OWA+8Yox9BJuj6Nz6U5+SR46WTC4pNDCffkkGeaSLR7oYPwSngpKV4qT52tWP/vlWP9fI22Ol6EQXhR7cLwsmp4WX/h5FFAfuis/L456iiFs83zItoGXtszRBTvatgyU4HnfRuAtSMpUvlkt5GqhwNwbB2XDy+/B1FLlrbfEwsLCxMT8Ncj5NxEgcU0uFww68NLpSbwUkgB/pwBmUC6NvAUoxbf93BknjMriVqyPGrpY4NKcryCwMvyGVD7nQi7FectJagkahF4eRleRrpkTva1HrWlAzZewRGU9fWJqIwNfCJWVm49PqrmwWPWo3hZhpfvD8WLsHRAqVl34nlDzsh4WQce9yfMpgIv3HpxRy2ywmnzOfEci1qdeLYm2gsPXtZlPcHXKZ5S1IJ4fp+iIFjlUMfng7oLz47iiGTV8VpHLWnnhgPppGHJurO033pSH48u3QspWNAE6shZIE3NQTIjY0M2HmsY+DtkKbFAqD8ATwtfMmcvyZVsaCJrGAqtm/UAGV6AvhIOzI+nEA/kSxU8Ku1ELREHI9rHG0G8XkU8Wg/7nEFZLM36vuFl9wSvRdQSX+HMBuIVeOl0Fc5OoxbDsDccCGwYmGvx7l+nIOMUb2EEtnE6y/Bga5IxN14+Ep6l/uVSpXav4I5a+pztnnysxdOuo8PHSx3Nno2XLRTEPHYh78CLOtbSTrNuj4m5qHjY0kdnN3nomWKjhU68FL7eIYK6FBsviguvs6ilBV4B8QoiGMvar6p4gjIW1DmDll3FU4pa1PEKbAGkjZfdRbzWUQs3XMvBCEFnD2968QrsdTDe6/FUQ9u0KVdIzV2LUB1wezEY8SX2QmOVM9id5QeOs/w3Jj3KeO026/sv2+au4Gn7yeQQ3Mk69qhFW9lPKFsO+vAUo5bwhR9aciTsX90r6Uk78WY7WvhxiaaxzDbGNmLaLakTOcTyYtGtbLdnrU6adbaHntic6vJG977KjtiICB3d142O8AZw7Z7SvpJ7K7gL01OznZhT7Lide+ox37sirFjdtYzwHoPp6DFQcXpO02piMj2dbEu/C5J5QLP1K2wm18H396wGW1nao7Iv6J6JwfaRbsJBJ9/fyzDz6d2Xd2/7rYiSHmQbgN+idaYDPDMz8Dfuko/vdLB5ZXxyeUfstHw6F4gX9GqwvbFqErSMdilg4fP+yzrxKiSfdPN9qmVwQ36uecc5/VELMaHV/H2/OeSykYznq8HNH/ebRCZXqjF9Ndg68dvF1v/c3srFu5C7DvDsDxYYObP5bgFefNrIBeIFzu/5ZmfTafzcBInOTj/97feL165duwh/yF+Ua+LgGle/YAtpD0UQvGP5a5bYNZGu899i/8oXf/us2chk7Nwpz86Kauj/WAjxRGZjdvYSFfp9DJfi0LCTEW0XR1yP9eCRJDmfNtswWJ7i/GowhnbUrPS2nHggCaHB48rtIF6kKJVFkM06SwSTs+Tafn412GJbPUfsY2D8v/yo2s7ntqLidfCZpQQbsYj44SRuvk2vQ/B8tamTTz9p8o/YMA1Xbbk1+4MxTMu0ZzzbfIm0/f0Z95do2s4TT0QetZiRPnHWTs1zmc9o/fXoqHlqEbVE+ECd2YbbROHma/vT5m1HLRGSaq/mgThq3y7ihXx3TSFCMHvbNZ4w3yxNTvVbcKpRCzwQe0MT2Uf4PJ/eE5uHZHLJHN8yZKXNmgcizCcSTrq0iHnya/jPyKOW0AjBsIwqSKO3PbeJwmtfvV43q1VN6l86+Vgsw4vahCasxol7zfX19SYbAVk52JawlfJPm83mevPu46nN+i4165GSqp64z99Gi1VubzyGrznHjhetIHRt7QYbytbjzTgLp8K3fj3vsiR3dg8OpDkl+f6vwkeMZW/aRP9qsHWjdQ47k40p04iWpxijlkO7TUc8zdS+RS0H7UzcO3eXyPXrd6/fPUf+nkO5e/0c+MTrIOTwIDlDnSRoeEzOnMNTQoODexsi6eamFROe6bJmy4LAegf6yONyrVStgCwuLhari4vlUrVYIlKch+ur8yA1rVotlWo0+Sr9saSVStVSjZ+qkRMa/7lWvs75HsdVOJVf4KeSY5/K2CiXisVaqUIhFtcI3lp5vlSu1YrF8lq5RDJLfykTlmK5DIzkevJbpabV6UUMqFgsVVFKcLr48GtM/88RdhYI3XVAkKo4YYu9CbRRLJNcEzwi84uAN79WWSyVi5DFtQoYjeIVa7VSsVIheQcSxCtSYbYrEpsTdI5XKc8zvse5fYhamNe8/bBUKVcoHhhvfhHwiPUqRWq9SpHjVQhemTCRvAu8GsOrUrxKkRZahleuVDZZxd40FPMUX9SSYDXverlG8IhpKsi3VqZ45BDyPg94JcAmlY/iFQGvxvBKTryyD6+GrertKStGPLWCkMNFE7cJAMmIA69YXSN4xBRFbr0St14VrqR4NPukWobjVSxWOq1YCqeiS6F/0+ew3i9WSC0pl0nRohDza0Vtba0yXytTCy1i4YTfyCWlcmUePCrglTleuWLjwW8ldDNwQVnDSdjriVbOJaegRYpa0uv0X76yOE+dSrFWmQfzVdZqgLdGrVcuEyhuvSLFQwT4qVyp0sIJVzC8MgEH89HTUE9ZJ6mpmKcWO11FadaT5/FfXiTlEPBK3HolbY1YqzTP8Gok6+S4wqyHBZDYm9xD2j1wum68mo1XrrHh66ZinuKLWgyON8/wahyvTOre/BrxNzSL0JaVFkGoOdF61N6AVywL65Xg6hpar8asV+F41VjwokQtNh7klLTZDG8RXEtlsVhB91+r0qhlcZFWOuouCUsZqitp8WuIp0Htq0FsAHAac6ikHXTjdRq1BG2OKOty5DAq3LqCcv48U56eP/8UjskZKktE2BVLS+QieoJeDBrcR8+Qc/QCegO9kV6B0+hNxTzZmuQGyYYmIU44YQe9uy5NUsj2OGrZY7w9j1reV7x3sXDGErVEGTJN7iHeei6WYdxIg/DNzwLkt98kp/znIsiAap48JdQzCB+lWc9lrEzGHCBiZCwrA8oAnXyjWgam1VCD6WJQTPjV5FrGoxniVluzeMKWWp52ZYbI+7Emw6VZQqOJJEHDHgdouCYMtKRITgtKbjeiFoWpwsAXWhSdVLhDiDFP9kRv2qWx5SPJJH8Nl2tQb+3ZYoeGK2T8iciSsxPJtUykgzxJNjRpe5redBapth2CYcS6dMCds06aUDOuGrPvM0TvG94uOQSFbozHIcQ9fSlZMudZPKe6PC3t0rwr8EQigZ/XCU2kzTwFLXjswCEY7ToEeTHvJE9xLPwIxtv3WvyHx/uDRy2CFLNiiIckNBofJvhDkr7m73hcmmP/Am9yynsFxJYnzV0aYnMI3nLZwiG0Kubt5kmCt+815kPU8iFq0cTj6uSZS0xo+Z+54X3mLROJJU+B7V4sDiHmYh49T3/4Zv0D3nuM9382vDrlbyciAQAAAABJRU5ErkJggg==;" parent="1" vertex="1">
          <mxGeometry x="730" y="162.5" width="273.84" height="280" as="geometry" />
        </mxCell>
        <mxCell id="_N87Q6iRUAjB1oRdDqeh-2" value="" style="shape=image;verticalLabelPosition=bottom;labelBackgroundColor=default;verticalAlign=top;aspect=fixed;imageAspect=0;image=data:image/png,iVBORw0KGgoAAAANSUhEUgAAAP0AAADHCAMAAADlCqUFAAAAgVBMVEX///8AAAD29vb7+/v8/Pz19fXy8vJ9fX1DQ0Oenp6ysrKamprX19fe3t5vb29eXl4iIiLq6urNzc3Dw8M6OjoSEhLk5OSlpaUwMDAKCgplZWXt7e2Ojo62trZFRUUaGho3NzdMTExUVFQfHx9zc3OEhIQqKirR0dGCgoLGxsZQUFBhvR3ZAAAPs0lEQVR4nO1dCXajMAwFb1mbhDZrs++Tuf8BR7KBsJmATSnt8N+8SRMI6NuSLBtLcZwWLVq0aNECILzvliAGsWY13o15Xp23ewXqebTGu1HRJPKMrGskzwilNd7uFRitVRxuSZ8QTh1KqlIfwiihxOL7XIA4BflQzoG/BXloPAClvBr60IzcsSDPse14QXHwZkjf5m5gOxz4V9H7jFNOHG5+AdAc4MQJL6I+oPTYd+b3g2/7f1FiT98XhxmL87QZuNLLs7kDRkI4N1U1wp7frIA+dANBP2J6oajDIK+UnwlBKXa96Yinep74t6RgcmbXCS4H4sA1mGmwI6Q4gccj+QM5NhS4a3AyNuQJNDFRWmbn+kDfmYDOANs3uwDaPHhxSn1VzlV+aWQUmttK7dVw4V/D/FpynIfWFOb6I9WeRsXJGzmlmyZBv5UHk03rXz94MWePwyZ2vKkiqpYvKA6TgxR8w1je1O0YMw9TYNwFlSWVihPzyfFzkToDbbPw0yR2OxzzjYcq6HQQB+mb+82UOPoxn0jnCg7Gwk1RbFr/AspcjTsO+x1MllhF3PjlUBx81fQFREPY0JRbTe7U+I4eGsyI6u/2EgxNHp2QsBkxiWSOow4jeeRRbo4ji1144vsUKgSRg5RxU6qgg1vO7Xz3jbFbLnk8xxHEsVF7JzqgcCu1l2aPMaddrPQ0G0leczEmwL1iUGk7KwPlUbegdjZPcJ7kcNMgJ0DoMmmOFUIrEzQw49g+cimffsTZloeAgV5gG1QxRwrF0Tk8gTfDELiaCanPXJheQWDXE8FslhgCUBJooc7mpbxyVlsJ5OUspqTgMFHtRTXiKOXnuiBHBpRwzwKT32IAbRM2C1EEPfXabqiLAIO4vL5APVuzylbhpO3brMKBrCBOZcuYqPx5MztR5RIkwsqIqBSnyjXcfHHAzzRp+Z4K66GuFFhFq68VgdZKvkWLFi1aVIW37aYzQlwu18Xwv/Ll3mbpxjC7DHNOb9SwawvRiTFf7eXLXy3/wfQXqUbfTWKmXjrZJAeuu6tZxK/DJeB8vG4UPoNPDllTfyDvvtcu5deAjRXR0T366XygtN+dPz/zW2IDnwY24XWWGtzi12sqRpLkeJ78nG6UDwinnFv3DV+w5wNibymTiWJbEwMLDKSgi6xDQ2n9x+Ad/P2mzg+94TSXvVvREtTXQfXeR/ZBccODPf/dH9edeDHyAj6Z82yQo+s+aiBghWOuiq5l26z9dx135UbUXh4+aEf+sbZRG4MPpHPVH3/IcS94d3WjPQ+YoGPIBp5qulZcF04oZF7gJse+0PFdoz0PeM81+0xn0iB4L4Wcx8/YJIax4WmiwXnXeJffj+pntp5+Rtx+FogOlQtbOZDaWP0Jzn+XFdduY2P+r0L3qdYY8R1SIQ+q/t5VYc5vg8Bwxo/YxzpHhTO+HxG0loV0en6/+kHrcpscAeDDWdKBDQd1iPfFkOwDbQ9i9tv1HmsAF1Q/wR5O/QX0Y+wdMg5H6uVl01v0F4PrGIx+P0uErNhOf2oXtnIE7D+OnzKa3a4yYhYg78Z8PpLfBG/uCx0aH+RL9p6csPtrNYtDFvm+OvsiX4aR2JiOk6dHcFtn3LJBkOw3inBg6/frJEleWb23l6FBrOc7ac4R5AVJDQA5h5JGZzrze69z+TydxqNOR2kHYn3AyChGHseDjUbxe/v4hKiBCPtuozkh6hc5xEbj2LleXv92Gj/DJUrLb9o1ynmEvSMOyYaCt6Af2XB/QIh4y+l4J8HeobvEyYNcu//8OrErAq7M5UxF4+wdvkyshFxzyP9t/gMf6M28CT4Ob25k5ErNAr0PHRqv9o6a3HT0h+XiTX3S1I1B/riMh2/1SVM3PhKqncApXzV+OribZ/hyuM9wivQnGHURoOHvdQdlNJRe1mKnpodxRSFVv5d9TI53GYoP9jD9WqlqgwzgsjV5+YzyI2BHmBKGS7ZzDbwfsKjr+I9rzlmrtqNE1/ure9Dzt2Dc38YmhDHsf8byj9y8kDEZl+TPzy7sqHk+kD8EbbXNjXRzIujmgMn+Wz3iqur9lQyeq7kY9vXlXodDeCY22/SQhekhy2jKoK6dQXPVVaOIH+f+/CU62mFH92PkYUDsaq96sZvhUq+upSFvD30PGrBbvGHij7cduWny/vDgTiM1Alx39ngbZuFteHBtHgMwUZ/bhN6f+vv19s/1nlScg/RvUaFOuXa/t81M1YNaZiPGIGZAfjJLip9a9HhEex6wvuWxt4iIMEMnp+8x85OTqhKCxGy3n6Q34aSXfB6JB71kMfqU6HQu48+L/0ZiYOHzMLmV6fc+YFaaSn2ugj71bvvd8rEdBaP3uCey2Wvg5wdWpI1MZrrl5GZRv0KHVc57AOrMp+fz7Q3zXt4ej7tUKDSDopsvZM0MTAy2qggQgjMHywhpDz/TyKhV1rsEc8RxAh46no+Kj/ZXxSw3UiWhAvpMllvSlxGKlSOxp/+2Oay608M1nu/0UCZQQPlj+Yz29GVpBYdyjUvjaBIUbMPPoLdT/vvl5i53Z3efmMsFQWz31fYbWSeHhkWPiF2aFti8wGIGQkNKqr1sbt8rUmI8+LHt9DxZHtzldOW6l+iRaATfy4u6VJ0cafdh3R5DaRyZcEexjg7VeNBodZIwg94sLCID6Pabe+ge3BvGOBH6ielLJ2NLi38NFhFHSWxjijjOY4qnvu6EE1QJejaCye3mfzAcW7nLibuZK7Yhff8t74UT2JPGAUhxAt0LGsGYPSg8ltXQZ7eqokT+7TgWqsjJ2dZjKJ89T2EqtoewhPgJCj79Z1uAaQT8D5kOQFpdoKXorIiROBJS7WGsy4vyIpVpGDWslsLU48vpxB33mSPFjdBX5Ef+ue9hqsIO9V/EsV6v8X+5Qw/eYC0Gzz9UWihZW1AWp9SfRJ6lyIgheSI7FBzd6SFHD/lh2OEJK/BtROKRfmAvPYY77QJm8mUfHJn1S0rFsXSNw3OHMOXiUONVbRYDPdtJ6fabIYYWYTyter8T73kF0UuxDg3Cb4TlbQWGNH2Sd4M9HwUhy4aBA8/NMWdPf6h6vvxopx49btYM9SiS1B1JThqlvtT3Z77TOA7jg3qFlzFgFx6BGfOqjFTQl/jvhQcPQyvT8lBqKQd9OIfYInqBhZ68enydsVb3FCdRJ4cuy2xRVx3JX9cyCO5nWioGbXc1G2DhBJ5I59/qyavHuRn79ILeSokzLcGeg5fEsmoFZuz+mELMyLOVWsbqYXGp5AX6CYf3hCKfwT5Styfuf0uwx3o9WLenyHJFWCjHKPcB9x1BjNdF+umjOLHNWo7zyWfu0QzivURTdguzx3pyHAafYmfLWZ5pqRjU7rPb7S4zn19F9i1HcQ88woWINDwY6D3hJT68FWWPBTmx0lvhzsSZlOFkApX7tIEAt5tFP5u96vlpGPckMQNlytjnWfTJv5CFykpMVc2r6CL7o7Nxu5MsPc5kf08TS+C83Gd8WnRFG/1vtZVrtED2U+5vt0r1fhb7YQaxF9jfbrdR4Yf8VFSyQlcEyL4LiqYSTZNTlwz2a1+NP8cFcQzTXYoCKyNbkSoMyR7/UPQT3gOmvEn2/k7kEmEr9H3JCJTVtbstZK/oJ0x/tp8l2Ad6XyLBDBSlqXv1nuwdfEx7iB+dufsEe2yj2bVk359/AHu5bhs3uHS0g+H9dVGy78+2Un4VIuzjmSkSaa+Hn/SB/Z/5W0E8cDMEoIm1OcqyxyhmazDouaubZjPUd8KEfd8fIBRSz3o1mDUwc8uMvfOBlYhw8JssdYnHyTxkoN845TdkL/FeKo455O2B/SbYsP/QrHxkY/fr2K9KJFz8PvZl0k1+G3uw+79ZyxuZ4JNfxp6WGO4Rk8YFvMbsH9fRJXePVhrNS8gzZf8nl2cKu7/HJlbaMmR/d7MStPXIKeLznSjLfq/YD4BQ9qbUDHw0dpZXlv1kJdlvSs5xSz3Dqw+lNX8/M2E/s5Xza1De7s//NXtZc+X3af46m318oFqpmisLrEUyKohTAwsvsOH7+/sd1ykO93f8U6YbbOXfAeT23Ognw9Vs5W7u9/wUnIwRDy4ybFCoV1Z+H/ty43wcjamz9mFBwnVLxjohmlJ35gjR5x9dmQgtnt+4lv8uTHFP303bh/sNifTfcc9stOz/h3tmo2X/P9wzG/89+7pDL9oc9mOYrey6RXHUnvq38EV2s+bUWyr1GDbvQWXRh5gSjSlPMtyVEbsSdBtDHoCJFEvX7dli8eqEARDHtI3vJpzCsg5HRPPKEnwnlsmdOl8B0rJvIqY1sW/mD+rU1fe1sS8VwtXFvq5SVNwrQ//L2QsQh9dm99TzytD5avYgTo3sX6TvpXC0LIH0AkRm18xrWtB78fPBaXS+dJmZEJmg1q+pyLpMYCxDfxtXSizd4lRSuEVdTtaBwWHVbNsG5uIWLiXEiEzoKXN9OosmVKpsd1bRr0vL9HFG8Jlf2fSEQBz8VXJa7Ke1Kf74fNlMXHyq0fG1Rd6EQltXkhsBF8EMcoEl64y6HjuSYS47LcCJcqoUv5zouAFndln0Adt+gO3zT2Ns+wv4t8F6DUal9Z61ZGiBDC2BGZz68iRahPutoz8EOtFXSSyI2cF1D2fMzTPbmx31Xy/pM84F/sfK/yj68JQiXwX9yXI5w7JFJ6PyYrLnGfE90Iu6Pdg4AgsSGSWyeR+9zaI3GGx6i8ViM5BYLAbm2IAlbfBSvQ+zcEJVEeLg8YLCNTnEKOaiUpFTjuoFWPpvO9dHZQq+6SUoklfFWlhYRUl/tpDFTYRB6QUJFinbE7xw85J9OE5TC3GitVTCFx179PYUi3QYlzVKsocxz7RokeIuO8O8GGSUvSxiw7Q55kgdtITYBCnSvYTsCaGmGe3qR+IgZuDGF3D8uj1hFMIJIbqyPUzKClZvE6FR9qxaRExLeChxhAzO7H4STypeUMOC5tSSQSXDOkPE2MjULSRjqhrTMSnbE4gjGNIvXjwgUxwWisNzC+lQoUqz2MXmfk9hcU4r8nAFhqUAbdQ+Ig7xi2XmlRRlQjiWE5NnWGlHHjsL7NTC4flCBBfI63ngLSvFiPIRnuZ+zMbmyZpzJY6lNKE4eT0vy1MgfSubV/CVFf8ztnk0QsFyq6IVBXmKoyPPCUyhsSZPFTNSHrSzMXms6ItNUIEwQR0dmi4CFEC2j617TV7OPGTCurfoQKqpeK3oa8d5GVcwZ11k7l8MYEXCpg4kVv1dW3r7mDg8b+yAu5F1sXWfovezkR1d/dpmuCgpDsxpK1qD82G3oInVTyst9P6iY0UV3r4yYMXrWsVpEnknr9Z3ixYtWrRo0aJFixYtWrRo0aJFixYtWrT4H/EPf3jJECFEVmEAAAAASUVORK5CYII=;" parent="1" vertex="1">
          <mxGeometry x="720" y="-260" width="254.29" height="200" as="geometry" />
        </mxCell>
        <mxCell id="_N87Q6iRUAjB1oRdDqeh-3" value="" style="shape=image;verticalLabelPosition=bottom;labelBackgroundColor=default;verticalAlign=top;aspect=fixed;imageAspect=0;image=data:image/png,iVBORw0KGgoAAAANSUhEUgAAANIAAADwCAMAAABCI8pNAAAAh1BMVEX///8AAACMjIzy8vL5+fnt7e3d3d3Dw8Pg4OD8/Pyvr6/s7OxAQEDOzs5hYWHx8fG4uLjX19fKyspQUFB2dnapqamVlZWwsLCKioqhoaGampp+fn7S0tK/v79JSUkeHh4lJSU2NjZXV1cODg4vLy9sbGwhISFeXl47OzsTExNwcHB7e3sxMTG+aSOYAAAKrklEQVR4nN1d13bqOhCNwYDBEDqhh5aQhPP/33cxkmw1sC3PSPLdb2etE1kblemjtzdUfPSD4Hw5beaDJu6HrOE9yPB7WnTqz2seyOivIteTqoRYYfTAZux6Yubo6ykFwXej7XpuZpg+Y5Tg2Ou6nl9pjF4RemBWq6WKludcRnf0d64nWhSjp4dIwefc9WSLYFWYD8GH6wnnoVdoxwk4eL39xpfShBL0vb0oun9GhBL8+akqDcrvOQ4919PXYFmF0B1T3xYqLH5xP8XENQkB0Wd1RkGwdE2DwxiC0B0n10RSbIEY3WVU6JoLAdQaJfj04pKIABndOXmwTk1QRndOrgm9sF1N8e6aUVUJq8HKLaMBPKMgcKvFgohYGQeXjBYYjIJg7Y5RC4dREAydUZphUdq4YoS2SO6WaYNHqeGGUYjHKAjcUMp3qFbAyAmlEyalvQtGXUxGbi4IOMNPCxcOyzUupT8HlFCPkhtFD5eRi8OEqDoQdKxTgnSiaGFfHUcVtAlm1impSQ3A+LFOqWy0rzz+h5SspxEgS9o7YtuUkNwOHKynG+FTsu77wqe0/f9Rsq4+NNApWTcvVGf44bScT9otdvfG7e288X4wp2TdVhdXqd8YPNGcm+2PjVl0wzol7ixNe3mGQHew2NeH0mFdNBY5WJRbLetniWkPpe6l5qRRfLWs33iMUumMunDSOBaiZD21g1EycvXeaf3kUrIuapkm/mU6QHM8/3t5uKwrRIzStNIo3XZndXvfZ8HE/t9i5ooSs2ov4CMzStY18R77XcFzL1jqpXV7KXWnQKfIpLkh1h15aXoAdAlFB23585D68aAlYqo8Ao+bjzb7MnSi99QZpTTBCzqsysY9A4+bj9QnDuwVTVf/ADtuAaTBZ+DszdSLe4QdtwjYp4ET6NL0EAfRWvZp4GP8jbT6+ehlahmo/MjCVsb6sBmGxyADqHrZycY92bQuYqG8AvTLgntwATnya4g1PaCyViyKtBYJTFWWw/tytr9AFr/J+SGWbCYmkTYIBk1bomQpHbmH+QOGrdYwDMN4t8eQEM9whT9BOpBTZaf6+wIvjXQgm8GK54scJXwNbGSbUh/9O8RROED/ToKHKvSN/pmvByU7PhXiJ0UvNLJ54xH1H9sJT3wbV+SvUJCrCDvFh6golqpkIitb4vfxEVse138WZC0xMqylRhEP/wH1Gyeb+y7VWzFjqVR9tedDJsUWmI42Iigs2uq0wxCegUaVfZsdi2hNDJZopzvbqkOFfhNL0aO+PLuV0NQnitN4ggZFbHe/+UH8IY+PoeEjpjmI8Lb73P7dQEDdRPD2DA1s2k8TZ0oYfJX8l4u7gYAGa6EjZlvMiycP9OcEVpaJs8ZBcClBE0M40aQXV5X3H/B7ZEiGdFb9/LYHP8m0h6i7biPgwoleOS4bzNFoEJj/8ICqOpaZA5TltEa5Q0tiCymcaJzWdR+sGeAPS/wNZ9ftTwEtJxp5dt+ncQRm3BCl0Um9vYQTkHCiRRzWcyU1oIe6alSVyjiLeQEvQK/ein7/PZKtYoYLwNabAwvtiqDCqUrgBGj3wuGv8vVL7xh3LZUUBBW3Xg/eTKmKCZmSaQodtZKq1TpAg249w+AJrSZpwc6pKmjGoZGBvfRv2yWgAaFfA3u04+O2S7A2nRh7O8Kj246B3sO3kn/WPYAoHygIP42uCOqSceEvzgcrWSgVw6UuIftdRYphV54TS3T3ok+wDix9uPB1zJoGevyMDHWTFw1Ms//u49XAUKpcJmSF0F4/dZE1J/rJNbgn7L/6/SIJX4D++jIPZ/VgJD4i9fncRO1yXYz8fjeL7LusIONHbxTGQvuLg9UplgXZdze+KdtGjk/HPbk9QlkVyiao+jB4awqz3m96g3E7isbb3UJ8g4Wupy8+FA2IpH2EMYr0ZdtHNJz069oL/hxnbh8N81o+nxO1if4nP3XWt1TQMOUmfn/OJ7hQ8Uq1d1/VB0KB85e2Ft96QrP0zmA3iZ9qqzbvMFrJa9VvTPijQ/0O/lnpCejkVHu7te0tGgkW84EqV0k6syfufRG05K20C5gZjtabv+SDLlL5zC+mG/l2nCY0emES4GSnzfGTHSIGqbZgdBuz7myfvhhO3fm/9DozS9Di3gZqeBDX3ApagqEPgaviDvY7l88VhZOl+MCKcUaH2GzvOnJzVcQjVeEx3jVKj+jp2vKl3uxsfhU+FTjpe+K/zy0lGsajV30WjQ7Ti6bX19UY1/KIerO8dpgGFUB5r1JhbcJwsn5lLGQoa3ZHxyKj7pc70BhhvFuW6BL5wjGkIizR/vUyG4FIreboVvolrFPRL3dLt+j9vo2qhdaihdmbusFXkbsqNmzQe2mYnq3BpkJn3GCf08u1pfi+SuFW3qsUrqs/vDZdPXOkbkt2cNXhXE4dbIL1bJ4uR+MwlSzdsN1ZzY5Qg1+L+57B2+4f+tM7+vAv7s2KKYPtI/iXEVFEtOO3PodFrrOjOc0fxDMcXl8TchugeuCVrtzJ/3Mv8dwthf6yDRqerVNd1yiB/jwhP7eGi0+doRjn/53P0KU/V9FRfYCa5IP2Tqs1yJr/JP9PfIesRuh9WPWCaBjiPwBjAUKaIvSL9Y7AW7o315OBARfwFR9i7N8a9cHyxLeQzZw4/ElqeJiu/Rof2eSz0vazjmd9kGZfZiXLu3ozekvLULILIvN1+5h8UASpfsoc8tki+RanL4x0Vcg/MzPJn0q8skg5kJOTvVlv/4VYKKRiiOT+ZlaF37nAr5A2uH48gs2ZfvVdpZTEI3WO8zi4eOcbBukDNg+riXuk1W2DjyrIfFuJhXHNKOE3AcZCptIl90GWAFRjuZS5GZZSM3wPcpLMkEXgrpKvy9dE4FxkFH4kh6RvxbpFEXIcuqLX2HW7HFNwCX1BKFYS1FXJG3AcYjHoV1fBxK/LWMpJcj03Q/DrMuH0cLIRawk+Yasj+cI9rm99Bf5V1dGbmJFWU8HEu7/nvIoXeJZ9XhhDkcJJoFRPwcSLpWAhbTxLbzAAYydSEq8HX/pPlYOgLjRkD7/r2RlhI1IS5VI9zQvh8CxlSrUUTEeewUamhPnQAxoCkZKUd15HwdSUKElRWp/rxZ9BTKtZ8j6vBEjFoPHgYzTGctbsJEpSMTlKj/8V9ULtcfqXriVKcsIavHnBm5wXjOZq4g3XUDLWwAWTtA0QnlsTc1cXCiXoTyppi/B9RYRnWYO1sC0SAAsmTbIseImVOPxK+SZwuFaT0AwdEI7E4edKZiFsQEYpW0wAfANJ2Z4fgqMyAaxg0qZbAXsDPsTRd8qbt7DmhbYABvh5BElZ6MiHC5jSWR49AbBPV2yak1CSc1pBL1kdI+gH0qWdMFH3BmhTIG0yJvAqSWsyUK9Z0ICMhbMkp0duJSs3APZ7WbjxZCk0VrOpQd+90lYIwMolWaNrq+XU/0A/qNl5wHe4JJaS600p/AP9IL6OJy9JrGkoBpsJupaHh1b1v6TxY3XhoLV/VbjDQt7aQ9lyR/gof34v8NaSPP2mptoC3O/VXVBp2EdoyiOr3QklRf/HCMhEo/kcprOBDOX+aSoWFLgKhgyl2m+ooeTo/TpDKDKopSuYq1VYXWm8Euso1apE4SrPPtJRqlVARmn9ONZRqlVARpn99j9DmIMurOFUlQAAAABJRU5ErkJggg==;" parent="1" vertex="1">
          <mxGeometry x="40" y="160" width="245.03" height="280" as="geometry" />
        </mxCell>
        <mxCell id="_N87Q6iRUAjB1oRdDqeh-4" value="" style="shape=image;verticalLabelPosition=bottom;labelBackgroundColor=default;verticalAlign=top;aspect=fixed;imageAspect=0;image=data:image/jpeg,/9j/4AAQSkZJRgABAQAAAQABAAD/2wCEAAkGBxMTEhUTEhAWFhUXFxcYFhgXGBUYFxUYFhUXFhgXFxUYHSggGBolGxgVITEiJSktLi4uFyAzODMtNygtLisBCgoKDg0OGxAQGy4lHyUtLS0tLi8tLi0vLS8tLS0tLS0tLS0vKy0tLS0tLS0tMC8tLS0tLS0tLS0tLTUtLS0tLf/AABEIAOMA3gMBIgACEQEDEQH/xAAcAAACAgMBAQAAAAAAAAAAAAAAAQYHAwQFCAL/xABIEAABAgMDCQQHBAgFBAMAAAABAAIDBBESITEFBgcyQWFxgZEiUaGxE0JScpLB0TNigvAUI0RzorLC0jQ1Q1OzF1Rjkxaj4f/EABoBAAMBAQEBAAAAAAAAAAAAAAADBAUGAgH/xAAxEQABAwAFCwQCAwEAAAAAAAABAAIDBAURMdESIUFRYXGBkaGx8DJCweEiUhMUFfH/2gAMAwEAAhEDEQA/ALpe61cEMfZuOKHts3jFDG2rzihCTG2bzwQ5to1GCGOtXFDnFpoMEITe61cOKTX2RZOP1Te2zeOCGtqKnH6IQkxtm88EOZaNRghjrVxWCenmQGl0SI1jBtcach3ncEbEbVsPdauHFNhoLJx+qr7LOkiGwlsrCLzhbfUN5M1jzooXlXOWamCfSxnUPqt7LeFluPOquiq+V+d2bffyWfLWULMzfy3Xc8LVcM3lyWlyfTTENp9kOtO+Bt/guBOaRJQOqwRInBoA/iIPgqlQrmVZEPUSeihfWsp9IA6qyZrSgDcyUPF0QDwDT5rXGlCIBQSrPjd9FXyE7+jR/wBepxSDWFIPu6DBT+DpOiNN8qw/jcP6StuFpOYTV8q4Yarw7zaFWqEGg0c+3qcUCsKQPd0GCuCDpBkn0DnvZf6zCR1ZaUgkMrwIopCjsefuuBN/eMR0Xn9MHaMUh9WRn0kjrh3VDK1kHqaD0x7L0UwWcdqC2ptbMeipTJmeU5BoBGMRo9WJV46ntDkVOMiaRYESjI7TBJurrMv+9i3mKb1DLQJmZwLRsWhFWEMma2w7cblNHutXBDH2RQ4rHDe2yHw3BwOBBDgR3gjFZGNtCpxUStSY2zeeCC20bQw+iGOtXHihzrJoMEITe61cOKGuoLJx+qHts3hDW1Fo4/RCEmNs3lDm2rwhhtXFDnWbghCGMs3nwQ5lq8eKGOLrjgh7i00GCEJvdauHG9Jr7IsnH6pvbZvbihjQRU4oQkxti88LknNr2tm/csE3OMhsc+K8NY0VJN1NnM34bVVOd2ekSZrCg1hwMKes/e87B93rXZRR6M+c/jdpPl52Kak0pkAtdfoHlw2qU506QIUOsOXpEeMXn7NvCmueF2/Yq0yjlKLHdbjRHPdsrgNzWi5o4LUQt2CjRwj8Rn16fNy5+kUqSc/ldq0faEJIVCmQhCEIQhCEIQhCEIQmkhCE0JIQhdbImcExKOtQYlBtYb2u4t+Yod6s7NrO+DN0a6kKN7Djc/3HbeBv44qnE1LSKJHNnOY6/L1ZR6bJDmGcavLu2xei3m3cON6GvsiycfqqyzQz8cykKaNW4Nim8t3O9ofexG2uyzIVHAOrWt4INxGwhYU0D4XWOXQQTsmblM5akMbYvPC5DmVNoYfRDDauchziDQYfVJTkPdbuHG9Nhs3Hjch4s3tSYy1e7FCE3PtXDxQ19m4+CT2ht7ceqbGg3uxQhJjbF54XLWyjNshsdFiPDWNFST5AbScAFnMW4l5o0Akk3AUxJPCqpzPXOYzcSywkQWE2B7RwL3DvOzuHEqmjUYzOs0aT5pUtKpLYGW6TcPNCwZ2ZzxJ2JfVsJp7DO77zu93lgNteAhJdCxjWNyWjMuakkdI4ucbShCaF7XhJNbuT8lR45pBgvfva0kDi7AcypNI6N5t9DELIQ3utO6MqPFKfNHH6nAec06OjyyehpPmu5QxCtCU0Wwx9rMud7jWt/mtLqwdHMi3Fj3+88j+SimdWMA0k8MbFU2rJzqHHC1U0krxh5j5PbhKg8XxD5uWw3NKSH7JD6V80s1pFoB6YpoqmTS4dcFQ6FfDs0pI/skPoR5Fa0TMbJ5/ZgOD4o8nIFZxaQemK+GqpNDh1wVIIVxx9HEk7BsRnuvr/ADgrlTei1n+lMuG57A7xaR5JjawgOkjeMLUt1WzjQDxxsVYoUwntHM5DvZZij7jqHo+ngSozPZPiwTZjQnwz95pFeBOPJVRzRyehwPnNSSQSR+tpHmu5aiE0JiUhS/MrO4y7hCjEmATcbyYW8fd7xzG+HppcsTZG5LrvLk2KV8Tsphz+ZjsXon0giAWTUG8HYQcCCMcV9NfZFk4+F6rDR7nUYbhLRXdhxpCcfUJ9U/dJw7jxutBrQRU4/TcucngdC/JPA6wumo87ZmZTeOwpMbYvPC5DhavHC9DDa1voh7i25uHVJT0NZZvPghzLV48UMJNzsOi5mcuVxKQHxe4UYPae7AfM7gV9a0uIAvK+OcGguNwUP0nZy/skI9xjHxaz5nlvVbrJHjOe4vcSXOJLicSSakrGumghELAwcd65WkTumeXnhsCSaSackLeyPkmNNRBDhNtOxJwa0e047B+QrSzf0fS8EB0b9fE+8KMHBm38VeAW3o+yY2DJQyB2oo9I87TXVHANoOvepSsOl0x7nFjDYBm3roKHQWMaHvFrr9yxw4YaAGgADAAUA4ALIhCzlpIQhCEIQhCEIQhCEIQhCEIWGPAa9pa9rXNOIcAQeIKzIQhQbODR1Bigulz6F/s3mG7lizlduVXZRyfEgRDCjMLXjEHaNhB2jeF6KUK0pZNY+U9MR24Tm0O0te4MLeFSDyWnQ6Y/LEbzaDm3fSy6bQWFhkYLCM+w/aqBJNJbSwU1b+YGcBmoXo4jv10ICtcXsFwfvOw8jtVQLfyFlR8tHZGZi03j2mm5zTxHyOxTUqATR2adG/7VVEpJgkytBv3fSv1zrdw43oabNx43LDLzDHw2RIRq14DgdxFRdsWZrQb3Y9Fza6hDn2rgqp0n5Wtx2y7T2YN7qYF7hU9G0HNys7Kc02BCfF2MaXHgBWnO4KgJmO6I9z3mrnuLnHvLjU+JWlVsVry86O5+ll1pNksDBp7D7WJJNJbawUJpJoQr7zR/wUv+7b5LsqHaN8tMjSzYJIEWCLJbtLK9lw7xSgO8bwpiuXnaWyOB1rrYHh8bXDUhCEJSahCEIQhCEIQhCEIQhCEIQhCEIQhRjSR/l8fjC/5mKTqA6U8tMbA/RWkGJELXOHsMaQ4V3kgU3VT6K0mZtmsHkbVPS3BsL7dRHMWKqUk0l0y5VCaSaEKzdFOWKsfLuN7O0z3XHtDk6h/Gp85tq8cFROa+Uv0eahRTqh1H+47su6A15BXs+o1cN16wKwiyJcoe7Px0+bV0VWzZcOSb25uGjDgofpQmjClBDBvivDT7re2fEMHNVIpzpXmy6PChn1GF3N7r/BjVBlp0BmTANufzhYsusX5VIOywecSkhCFYoUJpJoQs0pNPhPESG8se01DgaEfnuVjZB0ltoGTjKH/cYKg73MxHKvALQ/8AgHppSDGl30iOhtc5j9VxIvLXeqdxu4KH5TyVGl3WY8JzDsqLjwcLncioyIKV+JvHAjziFcDSKJnFx4g4dCr5yblWBHFYMZj/AHSKji3Ec1vLzYx5BBBIIwIuI4Fd+QzynoVAJlzh3Oo7xcCfFRvqs+x3P6t7K2Otm+9vL7s7q9EKppbSfHGvAhv4WmHzI8F1YOlKH68q8e69rvMBTOoE49tu4hVNrCjn3WbwVYiFCWaTJQ4w4w/C0+TlmGkiS74nwf8A6l/1J/0Kb/bg/cc1MEKHHSRJd8T4B9VhfpNlBhDjH8LB/Uj+pP8AqUf24P3HNTdCrmPpTYNSVcfeeG+QK5UzpOmXfZwobOIc49ageCY2gTnR1CU6sKOPdbuBVtrm5Ty3Ly4rGjsZuJq48GC89FTE9nbOxrnzTwO5lGjh2AK81xSa3nE4qplVn3u5feCkkrYWfg3n9Yqxc4NJRILJNhH/AJHAV/Cw3Dieir2NGc9xc9xc4mpJJJJ7yTitzJORZiZNIMFz+91KNHF5uClOV8xhKyMWPFiWowsUDbmMtRGNON7jQnuF+CsZ/BRyGNvNg1nPrUT/AOxSQXuuAJ1DNqUGSTSVaiQhCEITV6Zn5R9LKQXm82aO95hsGvGzXmqLVp6J5kOl4kN19h4IvwD2/Vruqz6yYDFlaj9d7Fp1W+yYt1jqPq1RDSHMW5+N3NstHKG2viSo2uvne6s7Mn/yPHQ0+S5CshFkbRsHZRUg2yvO090kIQmJKE0k0IV95o/4KX/dN8l048Br2lr2tc04hwBB4gqF6NM4GRIDZZ7gIsOoaD6za1FN7cKdwB71OlzFIYWSuB1rrIJGyRhwusUUyjmBJRakQ3QidsM0HwGrRyAUbntFrhX0My09we0t/ibXyVnoXtlMnZc7nn7pclCgfe0cM3ZUrNaP59mEJr/cc3ycQVzI+bE4zWlIvJjneLaq/UKltZyC8BTOqqI3EjlgvPETJUdutAiDix48wtcy7xix3wlej0L2K0OlnVLNUt0PPL7XnFss84Q3H8J+izw8kx3asCIeDHnyC9DoQa0Ohg5oFUt0vPJUHBzWnX4SkT8TS3+ai6kto7nX4sbD997P6LSuhC8OrOU3ADnimNqqEXknlgqykdFrsY00B3hjSf4nEeSkuTMxpKDQ+i9I7viG1/Dc3wUoQpn0uZ97uWbsqo6HCz0tHHP3WOHDDQA0AAYACgHABRzSR/l8bjC/5mKTquNKGcLLH6JDIc4kGLTBoaahvvVod1N6+URhdM2zQQeRRS3hsDrdRHMKskk0l0q5ZCEIQhNTzRKf10ZlcWB3wOA/qUDUp0dxiyYiEf7ZH8TFPShbC4bu4VVCNk7Tv7FczOttJ2ZH/lf4vJXJXdz4YWz8wD7YPxNa75rhJkWeNp2DslTiyV2890kIQmJSE0k0IX1DeWkOaSCDUEGhBGBBGBU7yDpIiwwGTTPSt9ttA8cRg7w5rfhZiQpmTgRYTvRRjDYScWPNnFw2HeOhUMyxmxNS1fSwTZHrt7TONoYc6KLLgpH4OvGaw5jw+lf/AB0ii/m27WM44+cVb2S865SPT0cdocfVf2HcAHY8qrurzWt+Qy1MQfsph7ANgcbPw4eCmkqsex3P6wVMdbfu3kfg4r0KhUxK6Q51mL2xPfa3+iyunA0pRhry0N3uuc3ztKZ1XTi6w8cbFW2sqObyRwwtVqIVcQ9KjfWkyOESvmwLN/1Sg7Zd/wATEs0Kf9e2KYKdRz7u+CsFCr//AKowdku/4mrXiaVR6skTxigeTCgUGkH29Rig06jj3d8FZCFVUbSlGOpLMb7xc7ysrkzekCefhFaz3GN83VKY2rpjfYOOFqU6s4BcSeGNiupcDKueEnArajh7h6sPtu4XXA8SFTE9laPG+1jvfuc5xHJtaBaSqjqse91u7z4UstbH2N4nAYqbZw6RY0YFkuPQsN1qtXke9gzlfvUJJXeyLmhNTNC2EWsPrvq1vEVFXcgVJsu5mQZTJ8WIXGJG/V9s3BtYrAQxvC6pqeCpbJBARG28kDN8nFSuipE4Mr7gCc+a4W5h4NqrpCaSsUKEIQhCakmYf27/AN2f52qNqbaKZYOmYtrAQj1L208ik0g2RnzSFVQxbO3j2KwaUIVJy3SltjDzFWeTQogrN0tyYMODGbTsucx1Pvi0K/CeqrJLoT8qBuzNyXqnsyaQ7bn5/dqSEIVSjQmkmhCvvNH/AAUv+6b5LsqudGuc7PRtlYrg1zSfRE4PBNbFfaBJp3ig2KxlzFIjcyVwdrXWUaVskYc3/hXDynmrJx74ku217TKsdXvJZSvNRud0XwT9lHezc4NePCyVYCEMpMrPS49+htC+Po0L/U0duoz9VUkzoxmRqRYbxvLmnpQjxXNjZhT7f2e1va+H83Aq7UKltYzC+w8MCFM6rIDdaNxxBVDRM0Z4YykTkAfIrEc2pwfskb4H/RX8hM/1H6WhL/yov2PTBUC3NmcP7JG+B48ws0PNCeOEpE50HmQr4Qg1o/8AUI/yYv2PTBUnAzAn3YwA3e58P5EldOV0YTB+0jQ2DdaeelAPFWyhLdWUxusHDElMbVkAvtPHCxQKR0Yy7b4kaI/c0BgPmfFSXJubUpL0MKXYCPWPad8TqkLsIUz6RK/1OPmwKqOjRR+loHms50KMaSP8vjcYX/MxSdVdpJzoZEH6LBcHAOBiuGFW4NB20N5PeBvXuiRudM2zQQeRS6ZI1kLso3ggbyLFXiSaS6RcuhCEIQmrI0RyhpMRN7GDlacfNqrdXLo6knQ5JhoQYhc88zZb/C1p5qGsX5MBGuwfPwtGrGZU4OoE/Hyt7O7JfppOMwXus2m+8ztDrSnNUYvRbK17WG9Ulnpkr9Hm4jAOw42ofdZeSaDgbTeSmqyT1RneOx+FTWsWZsg3H4wXAQmktdYqEITQhCluQc/5mXAZE/XMGx5IeBuff4gqWS2Z0vNyUB5Ho4vom9tgF/Z9duDvPeodlnMScgVIZ6ZntMvPNmsDwqN6h/sUef8AB/I/BWgaNSKOcuO7WPkKwcl5/ScagMQw3d0QUHxirepCkkvMMiC0x7Xt72kEdQvOj2kEgggjEG4jiF9QYzmG0x7mnvaS09QlSVWw+gkb86bHWzx62g7s2K9IIVESueM9D1Zt59+jv5gV1IGkicbiIbveYf6XBTOq2UXEHzcq21pCbwRwVxoVUQ9KMf1peGeBePMlZ26U37ZRv/sP9qUaBPqHMJv+jR/26HBWghVc7SnE2Sjf/YT/AErDE0ox/Vl4Y42z5EIFXz6hzC+GsaOPd0OCtdCpuPpHnXYWGe63+4lcuazunX602/8ACQ3+UBNbVspvIHPD5S3VpCLgTyx+FeE3Nw4QtRIjGDvc4NHUqL5V0gykKoYXRndzRRvN7rqcKqnYsQuNXOLj3kknqUQobnENa0uccAASTwAVMdWMGdxJ6YqSStXnMxoHXBSTODPaYmgWV9FCPqMJqR3Ofi7hcNyjKl2RdH83GoYjRAb3u1uTBfXjRSHOTNaXk8mxjDbaiUhgxH0LvtWXDY0cOdU8TwRERM0kCwbTZaT4Ug0akSgyyaATn2DQP+Kr0JpKxQoTSTQhZ5KWdFiMht1nua0cXEAeav8AloQgsZDaOy1rWjZc0Bo8lVujDJRiTDo9OzBHZ954IHRto8wrYbT1sd6xKylynhg0dz9LequHJjLzp7D7St2rsFEdJORfSy4iMFXwauHeWnWHKgdyPepe+nq47kNpSj6V333KCKQxvD26FoSxiRhY64rzmkpHntm+ZSPc39VEq5h7u9v4a9CFHV07Hh7Q5txXKSRujcWOvCSaSa9rwr7zP/wUt+6b5LsqrdHmdzITRKzDg1tT6N51RU1LHHYKkkHfwVormaTE6OQh2m7auqoszZYwW8di0Z/JUCP9rBY/e5oJHA4hRyc0cyT9Rr4fuuJHR9VMkLwyaSP0uIXuSGOT1tB4Ks5nRYf9Ob5Oh/1B3yXOi6MpsasSE78TwfFqt1CpFYTjT0CmNXUc+3qVS0TR7PjCE13B7PmQsBzEyh/2v8cL+9Xghe/9ObUOuKWarh1u5jBUeMw8of8Aa/8A2Qv71sQ9Hk8cYbW8YjPlVXQhfTWc2odcUCq4BpPMYKo4OjGaOtEhNHvPJ6WfmulLaLP9yb5Mh0/iLvkrKQlGnznT0Ca2rqOPb1KiMjo9kmXua+IfvPNOjKBSKRydCgikKEyGPuNDa8aYrcQp3yvf6nEqlkTGehoHBCi+kn/Lo3GH/wArFJIkQNBLiAAKkm4ADaTsVTaQs7GzBEvANYTTVz/bcMKfdHftPAVdQ4nPlaRoIJ4JFNlayFwdpBA4hQhJNJdGuYTX0xpJAAJJNABeSTgAO9fKnejHIPpIn6VEHYhmkMH1n+1wb5kdyVNKImF582J0EJmeGD/g1qdZrZI/RJZkPFx7T/edeb9tKAcl17Nq/DYkyvr4b0Pr6uG5cw5xcS43ldU1oaA0XBMss34oDLV+CTARrYb70PBJ7OG65fF6XMzgyUycgugvuOsx2JY4YHxodxKpDKMjEgRHQorbL2mhHkQdoIvB3r0G4g6uO665RnPLNhs3DtCjY7B2SfWGNhx7u47DxKvoVK/iOS70np9a1n06h/zDKZ6h12b9SplJZZiA5jix7S1zTRwNxBGwhY1vLnULv5BzumZWjWPtQx/pu7TR7u1vI03KPpry9jXixwtC9skcw5TTYVbGS9Jcu+gjw3wjtI7bOo7XgpVJZal432Uwxx7g4WvhN46Lz6hQSVbE70kjr3xWhHWkrfUAenbN0XpRC88yuWZiH9nHiMHc1zwOgNF1IGe0+3CacfebDd4ltVM6q36HDr9qptbR6WnocFeSFTUPSNOjEsdxZ9CFnGk2b/24PwP/ALks1dNs5pwrODWeSt5CqE6TJz/bg/A/+5a8XSNOnB7G8Gj+qqBV02zmg1lANfJXMhUXGz0n3YzTh7oY3+VoXLm8qR4n2kd7/ec5w6Epjarf7nDzfYkuraPQ09Birzn84JWDX0swxpGy0HO+BtT4KK5U0mwW1EvCdEPtO7DeNL3HoFVSFTHVsTfVaenbFSyVpK70gDr3wXZy5nNMTd0WJ2NjG9lg5beZK4yEle1oaLGiwLPe9zzlONpQmhbmSsmxJiK2FCbVzujRtc47AF9JAFpXkAk2C9bWbmRnzcYQ23Nxe7Yxu08dgHfzV3SEiyHDYyGLLGCjRuG/aTiTvWjm3kOHKQhDaKk3vcRe93fTYMaDYuq4Gt2r4b7lz1MpP8zs3pF2OGoLpaHRf4G5/Ub8PNKA63dhtQXWbsdqH0OpjuuTaQNbHfepFYkH2rsEF9m7FN5B1cd1yGEDWx33oQlZsX47Ewy12vzckwEa2G++9DgSatw6IQoznbmqydFtoDI7Rc7Y8D1X/I7FUU9JRIL3Q4rC17cQfPeN4uXoRxB1cd11y5OX8gQJuHYjCjxqvGu3gdo3G5X0WmmL8X529sRs5LPplAE35szO7/e1USku9nHmrMSZq9tqHW6I3V4O9k7jyJXCW4x7Xtymm0LAfG6N2S4WFJCaS9LwmhJCEJoSQhCaEkIQmhJCEIQhNCEk0KVZs5lRZmj4tYMHGpHbePuNOz7xu4pckjI25TzYEyKJ8rslgtK4uRcjxZqJ6OE2vtOOqwd7js4YlXHm1m9ClYVGXuN73kXvI8m9w+d63ck5NhyzBDhsDGDmSe9x2netsgk1bh08FhUqlum/EZm99+C6CiUJsGc53a9W7FAdbuw2oL7PZ/N6biDq47rrkNIAocfzS9Rq5BbYvx2IAtX4bEmAjWw33ocCdXDdchCZZZvCAy1eUmAi92HVDgSatw6IQhr7dxu2oL7PZ/N6byDq49ENIAo7Hr4oQkW2LxfsTDLXa/NyTARrYdb0EEmrcOnghC+TSIC1wFKXjEHZQg7FCs4tHsF5Lpd3on+yalh+bOVRuU4cQdXHohpAFHY9fFMilfEbWGxLlhZKLHi1URlnN6ZlT+ugkN2OF7D+IXDgaFcpeigKa+BFL7x0UeyrmTKRyXCF6Mn1oZscexq+C04qzF0g4jBZMtVG+N3A4qlkKwJ/Rk//AEJhr9z2lhA94VB6BR+azLnmGhly7exzHeANfBXMpcLrnDjm7qB9DnZe08M/ZR9C342RJlmvLRW8WPHjRarpd4xYfhKcHA3FILHC8FYkLMyViHCGTwaT8luQcgzTzRsrFP4H+ZCC4C8r6GOdcCeC5qFJ5TMOedrQRDHe9zB4NJPgu/k7RjgY8xUbQwdaOf8A2pD6ZAy9w4Z+yoZQp33NPHN3Vcru5FzTmpkizDsMPrvq1vLa7kFamTc1ZSBQwYILx67+07iC64cqLt2hSh1vnsvUMtZ6IxxOGKvhqoXyHgMcOai2QcxpeWo949NEG14Flp72s795qeClIZa7STARrYdUEEmrcOngsySR0htcbStWONkbclgsCGut3G7agvs9n83pvIOrj0uQ0gCjsevivC9pFti8X7Ewy12vzckwEa2HVDgSajD81uQhAdbuN21BNm4X7U3murj0SaQNbHqhC+pjDmnL6qEIQsUrjyRH1uiEIQskzhz+qcDV6oQhCxy2PJKPrdEIQhZJnDn9U4Or1QhCFjlseSUXX6IQhCyTWA4r6havX5oQixFpWOXxPBfMXW6IQixFqyTWA4pw9TkfmhCEL4lsSvl+vzHyQhCFkmMOacvq9UIQhYpXHl9ER9bohCELJM4c04Or1QhCFjlsTwRMY8kIQhf/2Q==;" parent="1" vertex="1">
          <mxGeometry x="726.59" y="930" width="280.66" height="286.97" as="geometry" />
        </mxCell>
        <mxCell id="_N87Q6iRUAjB1oRdDqeh-5" value="" style="shape=image;verticalLabelPosition=bottom;labelBackgroundColor=default;verticalAlign=top;aspect=fixed;imageAspect=0;image=data:image/jpeg,/9j/4AAQSkZJRgABAQAAAQABAAD/2wCEAAkGBxASEhUQEhIQFhUVFRUSFxURFRUQFRcVFRUXFhUVFRYYHSggGBslGxUWITEhJisrLy4uFx8zODMsNygtLisBCgoKDg0OGhAQGy0lHyAtLi8tLS8tLS0tLy0tLS0tLy0tLS0tLS0tLS0vLS0tMC0tLS0tLS0tLS0tLS0tLS0tLf/AABEIAOEA4QMBIgACEQEDEQH/xAAcAAEAAgMBAQEAAAAAAAAAAAAABAUDBgcCAQj/xABMEAABAwIBBQwFCQUGBwEAAAABAAIDBBEhBQYSMVEHEyIyQWFxgZGhsbIjQnLB0QgkM1JiY3OCkhSis+HwFTRDRIPxFiV0k5Sj0lP/xAAbAQEAAgMBAQAAAAAAAAAAAAAABAUCAwYBB//EADkRAAIBAgIGCAQFAwUAAAAAAAABAgMRBCEFEjFBUbFhcYGRocHR8BMyQuEUIiMzUgYVJDSSssLx/9oADAMBAAIRAxEAPwDuKIiAIiIAiIgCIsFVUMjaXyPaxo1ueQxo6ScEBnRatWZ+UDMGvfKfumFw6nGzT1FVr90qH1aeY+06NvgStLxFJbZIlRwWIlsg+RvaLQ27pEfLTS9T2HxspMG6LRnjR1DOcsa8fuOK8WJpP6kevA4hfQ+fI3NFS5OzooprCOoiLjqa47249DX2JV0tykpK6dyNKEoO0k0+nIIiL0xCIiAIiIAiIgCIiAIiIAiIgCIiAIiIAiIgCIqTOzLQpKZ82BdxI2nlkdxb8wxJ5gV5KSirsyhCU5KMdrKzPHPGOjG9sAfORcNPFYDqdJbubrPMuT5SyvPUv3yaRzze4B4rfZaMG9Sg1lWS50srzpOJc5ztbidZVe/KjOQOPYFUVas6z6OB1OFwlPDLL5t79OCL5pXrSA1qhhyy0eq63UVDq8ovedZA2DX1laFRlclOSNlkr4263DuHisX9tRbR2rVmaPrF3UAfEqTE6n5Wv6/5FbPhJcTDaXklfA/1hfpHeOVW2Rc66ymtvUxcwf4b+HH0WPF/KQtcilpPqt6x8VMhbTHihnUB7lhdwd43R7KMZLVkk0dczb3QaeezJ7QyHC5N4nHmd6v5u0rd1+czAw6nDrWyZs52VVHZh9NB9UuuWj7s8ns6ujWptHG7qnf6lRitFp/mo9z8n6952hFTZHzipakAxSt0jrjdwJAdhYcesXCuVYKSkrplLKMou0lZhERemIREQBERAEREAREQBERAEREAREQBcg3Xcql07YBiImXsOWSTHy6HaV19fn7OCo3yrqJXcsslugOLWjsAUPGytBLiy10TTUqrk/pXPLlcoYMkuf6SZ1uYbNizyU1O0GzAbcrsVmkkLtfYo1VxbbVW6ze06FRzKSRtySABzDkXxsLibAEk8gxPUFYb0tuyJkpsY1cMjhHZ9kLOdbVR5qW2mpw5vVLsdAD2nAdy9vzaqh6rT7Lh77Lo8NONiktpQeQLUq83wNblFHJ5MjVI1wydQ0vLdRzQyjXHJ1scPcuyjJ7di9f2bzraqkuBh8WBxyOCoHFbN0Br/BWUGS60tc83aGtLrPA0nWF7AWv2rqByadqwz0IDSdZXkpy4I9VWF7I5XkfKMkVRDUaTuBIx+vkDhpDrFx1r9TL8zSZLJqf2doxMoY0D7TgG+IX6XaLCysMJK6ZVaYik4Pfn3Xy8z0iIphShERAEREAREQBERAEREAREQBERAF+fM5YTHV1DDyTS9heS3uIX6DXHN1PJ+91glAwlYHfmZwHDsDT1qHjY3gnwfMttETtVceK5Z8rmmrxI26zQxOcbNBJ5l6npZGcZpHh2qrOhMeT4byNB237Mfctvp7rVqF9pGnnt24e9bZThaqizPJbCfTu2jsVnTxgqBTMVrTRrbTiQazJEcCzCnWanbtU1kV1OhTK2dSzKt1OoVTDgRzFbDJAq2pjXs6Z7Tq3ZVZoZrMNS6veQbG0bNjw0NL3c9tQ577LdAVFml9C4bJHeVqvVKwySpKxEx05TrvWezZ1BERbyGEREAREQBERAEREAREQBERAEREAWmbqOTd9pN8A4ULtP8juC8eU/lW5qPV0zZY3xPF2va5jhzOBB7isKkNeLi95to1XSqRmtz9+BxLN+ICMu5XOPYMAPFWmB4LhcHDFYKSifAXwScaKRzDyX1EOHMQQetZXhc9JWeZ1+TzRr2WMn70644p7ldZI0y0aYx77c/Oskp0iL2w1fFSadqx1r5BvLMs6QK4pgqmlVrTlSaRXV7lnAFOjVdC9SWyKfTZWVIkmV4VXVrNPKquoqLdCVJoyo03uLbNXiy/ie4K9VFmkbxPO2Q+VvxV6pGH/bRGxf70ve5BERbiMEREAREQBERAEREAREQBERAEREAREQGpZ8ZPu1s7Ri3guI16J4pPMD5lpRXXpIw4EEAgixBxBB1grTc583YIYZahheNAaWhcFuJAsCcRr2qtxeFlKTnHtLnAY6MIKlU7H5GoqVAVEhOkLjlxUpjbBVGxlzIsoHKwgeqiF6mxSLfCRFqRuW0cizb6qxkyyGZSlUIcqeZImmVXVyrJLMq6plWM5m+lSzNyzQHze/1nuPgPcr1VebcWjTRDa3S/US73q0VrRVqcepFHiXetN9L5hFzHdaz4rcnSwR0whtKxxO+MMjtIPa0BtnD6wWmyZ/ZyO1M0fZihHnJUmNKUtiIsqkY/M7H6ARfnaTOvOd3+LIOgUTfcsL8r5xu11bx0SsZ5GrYsLVf0vufoa3iaS+pd69T9HovzVI7Lr+NXTf+VM3yhRnZMym7j1rz0z1D/ErL8HV4GP4uj/I/TywS1MbeM9g9pwHivzDJmvUP+kqGO9oPf4uWNuZh5ZWdUXxcslgaz3cvUxeNorf4P0P0tPnBRR8erpW+3NG3xcveTcs0tTf9nqKebR428yMltfVfRJsvzWM0Wj/ABnflY0eN1t+4C353MfuHDtki+C11sNKkry8vI2UsRCq3q7juqIijm8IiIAiIgCIiALWd0KbRoZByvdGwfrDj3NK2ZaLumVWEEO1zpT+UaI8x7FpxDtSl1czfho3rR6792ZoeTpyw6J1Xw6diuwbhU81MpOT6q3Adr8VQ1I3zOng7qxYRSKXHIoMrfWHWvjJVqTsetXLRsq+mZQRKvhlWxTMNQkSTKvrakNa57jYNBcTsAFyV6klUCsfwSNuFjjhyrfh6UsRVjSj9Tt2b32K7Ma9aOGozrS2RV+t7l2sR7uQa1rI6FpAaGgOqbGwFuSMrpOYuc39o037QYt7IeYy0O0xcNa64NhhZw5FxDOOFrad9mtHE1AD12rqO4eP+XH8d38OJdRisOqLS7eZxmGrutFyfH09TUflEYTUTvsy90kJ96zOasfykWf3M/YqB3wlSyFK0e7KXZ5kbH5uPb5EctXgsUktXktVhcr2iKWr4WqQWLyWLK5iRi1eSxSixYy1ZXPLEWRuB6CpPyf2/OJj9ye97PgsdQ3gu9k+Cz/J+b6ac/dDvePgq3SLuo9vkWWjl83Z5nb0RFUlmEREAREQBFhnnYxpe9wa0ay42C1yty5JJcQjQZyyyDEjaxp5Oc9yi4rG0cLHWqu3Bb31I3UaE6uzZxez30K76Czy3ldlOzW0yHisJxPORsGJ6lzTLVdLPOJJSL6Ia2wsAASbdpPcveUbhzZC4utJi517kEFtzfpXmvpy5txrbiPeFz9TSk61VXyhst5vp2dRd0sFCgk1m+Pv/wBDo7tvsUKpg5QptBMCFKdAFIeTJEGthW0Vf6j9fj0fBS3Q3xbjzLFU0APIoYMkfOOfX2rFxTNqlxJZuF4c8rGzKRJDSDckDEA61Icw/Vv0GyypYaVSahFpN8ZRj4NpvsTMauJp0o6079kZS5J27bIwOcVFkxUhw/r+taoct5xR0z97cxx4Ide4aMSRbHoXYaO0dDARdSo7zeV9yXBb897dm9lkji9KaUnpBqnSVoLO29vi92W5K633b2Y86x82f0s8wXTtxMf8u/1n+SNcTyznVHPGYgwNuQb6YOog6gFf5obqMtBT/s0dKyThl+kXvBxDRbRaw7NqYypGpK8Xu9TXg6cqcGpLf6Gx/KRbwKM/9QP4JVJHK6wOk7UOU7FT5854VWVGxtlpiwRl5G9MlcTphoNy4fZVe3KldYAU78LD+7yrfgZqlfWTztuvx9TRjYfEtqtZdPV6G1id/wBZ3aVlbWSD1u2xWpfteUTqgkH+k0eYr5fKZ9R4/wCyPEqa8TH+Ev8AaQvw0l9ce/7G5Nyg/lDT3LIzKDeVpHRitJFNlM8rh0yRjyrxLQZQALnPsACT6d2oYnUFj8bhTl3WMlR41I99zoDamM+sOvBe9FaZmzM5zDpOc72iTynarpjyNRI6MFtpNVIKa3+tjXVi6c3F7vS5Y1rfRv8AYd5Ss/yfh6Wo/Cb5yqirrn72+9j6N2v2Srn5P49JUfhs87lX6RTVrlho931uw7SiIqosgiIgCqsq5Yjh4Iu+Q6mN19J+qFDy9losO8Q4ynWdYYD7/BVVJTBlySXPdi5xxJPLrVFpTTCw36dLOfgvuT6GETip1dj2Lj09C8Xu4nuVskrt8mcHEYhg+jZ0DlPOVXV1Vp8FvF8f5KTlGo9Qfm+CgtYuU151JfFqu7fEt6UMlJ9i3L37uR6im02ObtHfyd6+RNuxjvrN/ebwXDtB7lNDV8p4sXxfWvNH7QFpG9YseorNyure+k2yll79/a5Q1cJidpjik48x+BU2mqA4KW5gIsRcHaqqeifGdJl3N2a3D4hWmFxaktSe3c+Pv3nt1tFpogqJUQhRYcoDavUtWFYWseXIL4/SM9tviFcyw/HtxVbQtMkw2N4R93er6VngPAKrx8l8RR6DZTlZlcYgdePPrstLzzyHMyspptDSiMlO0uGLfpdZ5jpBb89ilUjRIwxO5MWnZ0dfit2C0ziMHZJ60E1eL/63+Xq3kTHYCjiE5yVpW+Zbc8rvj258GmaxvI2DsC+lqm1MBa4tOsLAWr6dhsVDEUo1abvGSuvfFbGcFXw0qFR06izXu66HtXQRS1fC1SC1eCxb9Y02IxavhapJavBYvdY8sRixRMpt9FL+FJ5SrMsUDLItBN+FJ5SjlkwlmjXs1uI7q8XK9VLmvxD1eLldLXgv2I9vNm3G/vy7P+KI2Uvopfw5PKVs/wAn7jVPsR+eRavlY+hm/Ck8pW1fJ+11PsReeVQ9J/T1EzRuyXWdkREVQWgVTnBlTeIrjju4LBz8p6B8FbLQ8p1W/wBS53qR8BuzA6+s3PUFX6Txf4ag5La8l6+99iZgqCq1Ly+WOb8l2vwPNBBogucbvdi4nE3OOtSZpdFt+zpXxhUWqfc22eK4G2vK7Le2vK7MAHKsgajQvS3EhsWWOZhIDm4OaQ9p5xydB1dayIiyPBNZwErRZr+T6rvWaetYtFeoXhjiD9HJr+y/kcFlkjsbH+ucIYrLLu99BAqKCN+Lmi+0cE9oWs54zw0UTXND3yPdZkZdgQLF7jYXsBh0uC3RrRiSbNaNJx2ALhGcWWpKqskleNG142M+oxjrBvTe5POSrbRNKpWq21nqRzav4evRlvI+Jq6istr9952DN2ogmgbNALMdgQeM144zH/aHhYjAhW0rdXshco3NMqyR1rIhjFMHCVmsENY5zXjY4EAX2EhddrANKzdQDbdgUbSOGeHruN73zXHNtZ93btPaFZzWaIT2rzTnReD1dqyuCwyBRFnkS1mrDLkJLdJpGlq+F/65VqLcov2N7D8VvFQNJpG0f7LQ65mjI4cl/HFdv/RWJ1oVcNLdaS5Psvq95yX9RUbQp1ltzi/GUeUuy3AzjKR5WjqNllblBnKHDvVYi7nUicxrst21EZ9YdeHismiqRfWvI1EjowXjhwMlMuSxVuXh83m/Cf5SjK142HpUfLlaHU0wIIJjI2ha5xai+p8jODTkutcyjzaeAw3IF7azblcrxa5kTNiprmhtOInOYASx8jY3HTJtoB3G4pvsw2rPNmBlmL/JT9MTmSfw3EqvoY1U4KDWzp6b8Cxr4J1Jud9vR0W4lhlf6CT8N3gtv+T9/mvZg8065bU0GUYwRLDXtbaxEsczW2/MLLrG4FTPEVRKWuDH701ryLBxYZdINPLbSF+lacZiFWs1uNuEoOimm9p1tERQCaQMtVW9QSScoaQPadwW95C0TJzbN6T/ACWzZ7y2haz6zx2NBPjZa7T4ALk9PVNaqobkuf2sXmAhq4e/8ny9smByjc6yPOC8NVDFEuCsj6ERFkZhERAfHsBFlmpHAgRvNrYNds+yeZYkTdY8aurEiuY3RMOsHjnadnUuBZ7UJgrHj61pO3A94J613dcW3UXfPuiMfxHq20JOSxGqtjTI9eH6L6Hft2eZP3JabTqpJSfo4rAct5HDHoAae0LrC4/mTXb1WxHkkvC7ofi399re0rsC801CSxV3vSty5pnmEf6duk+OWGQLM5YZFVoloyMdwQtSzgZaW/1uF4raWHDmx/oLWs5uOw7Qe5dJ/SctXSSX8oyXhfyKbT0b4Kb4OL8bcmyoREX1A4MIiIAoOW/oJPZ94U5Qcun0EnQPMFrq/JLqfI2Uvnj1rmay2g3xjThZo5RfE7OxbJmzn9lGgcBvj54GkaUUzi/g/dvPCYdmscygZAyVWVADaenllGiASwcEO1gOebNbcE6yt6zb3IppHNkr3tZGCCaeF2k932ZJBg0ch0bnYQudbjvOhzvkdgoaps0bJmX0ZGNkbfA6LwHC/UVJWOOMNAa0AAAAAYAAYAALItBtCIiA07Px/ChbsDj2lo9yp4nKyz5d6aMfd37XH4KojcuL0tnip9nJHS4SP+NBdD5smE9XePiO9fQP99Y/l1rCHLK0qrNlj6i+32geB7Rilhz9x/rtQ8u+B8Rfbc46wW+F18sebqPxAQayCL7onYP1N+KaJ2D9Tfig1j4uK7pp+fu9keZ67VY/Z6yfcCuJ7pA+fyeyPFyt9C/6nsZqxDvSfWisZK5pDm8ZpDm+003b3gLvFFVNkjZKDhIxsg6HAEeK4GCuv7n1YX0MWq7NOI2wNmOOjcjXwdFTtO0rwhU4O3fn5Mj4RtSaNicD0dOHdr7lieQOfpwHZy/1gvr3KPI5c5FFhGPE+mRavnbXxRuj3x1tIPtgTqLb6hzrYHPX2v3N/wC0Y45nVDoSA4NG9iQFpI4RGkDjbbqsr3QEpU8bGpH6VLxi4+ZB0vSjPCSg97j4ST8jRGZUgOqWPrNvFSGTsOpzT0EFTMubjlTTwyztq4JGxMfKQY3xEtY0uNrF2NguWCrZz9Y+C+gLSb3pd7ONejVuk+5fY6Yvi5zHXW4ryOglqsaWoqy0vjNS5gNi5unIwGwNi6xANiMOdbY6Rg9q8b+hqej57peRuqrs4D83f+XzBa5HnBOMN8aeYhvuC9VWWpZGGNwjsbYgEHAg7eZZTxlOUJLPNNe8zyGDqRnF5ZNM7PuDD5rN+Iz+GPiunrmW4OPmkx+9aP8A1M+K6aqOW1l0tgREWJ6EREBo+fQ9Mw/dgdjnfFUcZW6Z15LM0YewXfHc2GtzTxgOfAEfzWiscuR0rSlDESk9ks13JM6XAVFUw8Utscn4k5jlma5QmPWZr1UOJJaJQcvt1gD16D1jYwsZrpdYdNNNLCxmuvl1i003xLCxk0lxXdFHz5/sM967GZFx3dA/vr/ZZ5Vb6GX+Q+p80aq6/J2opQuj7l03oJmbJdL9Ubf/AJXNgVvm5mbMnO17B2NPxVtpVJ4Z9a5kfDx/URvr5FHkkUmiyfNObRsJHK7U0dLjh1Lask5rxx2dKRI7Xb1Aej1uvsVLhdH1q7/KrLi9nq+wl1sVSofM8+C2/YpMhZCMvppeDEOFjhpgY9Tdp7No07O/doeHGHJscYY3gieUX0rYXijwAbsLr32Bdpq6dskb4ncV7XMNsOC4EG3UV+dctbmFZSSuBaJIBcsma0vBA1Nla03jNtZ1bDyLrcFg6eHjqx2va+Pvgc7i8VOvK72LYuHviaxlXPLKVTcT1tS5rgQWB5iYQdYLI7NPYqENbtC2iooGDXE9vPA8St7DiFXywMGp7vzMIU7VIesVLYQdi2jNzLeUKMO/Y55I26Wk5o0XMLrAYteCCbAc+pUjgNt1ZZNqWhjoycb6Q2m4th2BNUOR03NjdTjne2nynTwHTIYJ2sBYCcBvsbr2H2gbcwFyOjVWY+SpONQ0nS2JsZ7WgFcXzW3Oqyue0yRPgprgvfMCx728oiYcbkYaRAAvfHUv0Q0WwWudk8jNX3kPJeS4KaMQwRsjYNTWjl2k6yecqciLAyCIiAIiIAqPK+b0U938SQ+s3UfaHL04FXiLXVpQqx1Zq69+77TZTqzpy1oOzOe1ubdTHqbvg2sx/d1+Kq36TTZwc07CC0966ssckbXCzgCNhF1UVdCU5fJJrrz9H4llDS0kvzxT6svU5aJV6Eq6JLkamdrhi6mhvhZRX5r0Z/w7dDn/ABUOWg6q+WUX3ryZIWlaO9S8H5o0bfU31br/AMK0mx/6k/4VpNj/ANSw/seI4x736GX9zw/T3L1NJ35fDMt7bmxR/wD536Xv9xUiHIdK3VDH+Yafmuso6DrfVKPi/JGL0pQ3KXh6nOzMucZ25CrJqx5ipaiQERgFkUjweA3lAsv0tFSsZxGMb7LQ3wWdWOC0X+Hm5uV8rbOrpfDgR62k1NWjDvf28z825F3KsqzkaUTYG4cKdwBt7Dbuv0gLsGZ2YFNQxaBJmeTpuc8WaXEAYM1Ww5brckVm6UHk1frIM8VVlsdurL7nhjABYAADUBgF7RFsI4REQFbXZBpJjeWngedro2l36rXVRUbnuSn8alb+WSVnleFtKL27PLGpxbm+R2/5OM+26STzuKusm5Bo6f6Cmp4ueONjD2gXVkiXZ6ERF4AiIgCIiAIiIAiIgCIiAIiIAiIgCIiAIiIAiIgCIiAIiIAiIgCIiAIiIAiIgCIiAIiID//Z;" parent="1" vertex="1">
          <mxGeometry x="1280" y="160" width="250" height="250" as="geometry" />
        </mxCell>
        <mxCell id="_N87Q6iRUAjB1oRdDqeh-10" value="user&amp;gt;guest" style="text;html=1;resizable=0;autosize=1;align=center;verticalAlign=middle;points=[];fillColor=none;strokeColor=none;rounded=0;" parent="1" vertex="1">
          <mxGeometry x="122.51999999999998" y="440" width="80" height="20" as="geometry" />
        </mxCell>
        <mxCell id="_N87Q6iRUAjB1oRdDqeh-13" value="host" style="text;html=1;resizable=0;autosize=1;align=center;verticalAlign=middle;points=[];fillColor=none;strokeColor=none;rounded=0;" parent="1" vertex="1">
          <mxGeometry x="815.0000000000001" y="-280" width="40" height="20" as="geometry" />
        </mxCell>
        <mxCell id="_N87Q6iRUAjB1oRdDqeh-14" value="" style="html=1;verticalAlign=bottom;endArrow=block;rounded=0;exitX=1;exitY=0;exitDx=0;exitDy=0;entryX=0;entryY=0;entryDx=0;entryDy=0;" parent="1" source="_N87Q6iRUAjB1oRdDqeh-3" target="_N87Q6iRUAjB1oRdDqeh-1" edge="1">
          <mxGeometry width="80" relative="1" as="geometry">
            <mxPoint x="168.37833999999998" y="246.64" as="sourcePoint" />
            <mxPoint x="566" y="247" as="targetPoint" />
          </mxGeometry>
        </mxCell>
        <mxCell id="HCBwjhVuhrXocHCyDj3T-9" value="1. register" style="edgeLabel;html=1;align=center;verticalAlign=middle;resizable=0;points=[];" parent="_N87Q6iRUAjB1oRdDqeh-14" vertex="1" connectable="0">
          <mxGeometry x="0.1603" y="3" relative="1" as="geometry">
            <mxPoint x="-37" as="offset" />
          </mxGeometry>
        </mxCell>
        <mxCell id="_N87Q6iRUAjB1oRdDqeh-15" value="" style="html=1;verticalAlign=bottom;endArrow=open;dashed=1;endSize=8;rounded=0;entryX=1.007;entryY=0.078;entryDx=0;entryDy=0;entryPerimeter=0;" parent="1" edge="1">
          <mxGeometry relative="1" as="geometry">
            <mxPoint x="730" y="181" as="sourcePoint" />
            <mxPoint x="286.74521000000004" y="177.83999999999992" as="targetPoint" />
          </mxGeometry>
        </mxCell>
        <mxCell id="HCBwjhVuhrXocHCyDj3T-10" value="4. confirm" style="edgeLabel;html=1;align=center;verticalAlign=middle;resizable=0;points=[];" parent="_N87Q6iRUAjB1oRdDqeh-15" vertex="1" connectable="0">
          <mxGeometry x="-0.066" y="-7" relative="1" as="geometry">
            <mxPoint x="-18" y="5" as="offset" />
          </mxGeometry>
        </mxCell>
        <mxCell id="_N87Q6iRUAjB1oRdDqeh-16" value="" style="html=1;verticalAlign=bottom;endArrow=block;rounded=0;" parent="1" edge="1">
          <mxGeometry width="80" relative="1" as="geometry">
            <mxPoint x="290" y="198" as="sourcePoint" />
            <mxPoint x="730" y="198" as="targetPoint" />
          </mxGeometry>
        </mxCell>
        <mxCell id="HCBwjhVuhrXocHCyDj3T-11" value="5. home" style="edgeLabel;html=1;align=center;verticalAlign=middle;resizable=0;points=[];" parent="_N87Q6iRUAjB1oRdDqeh-16" vertex="1" connectable="0">
          <mxGeometry x="0.0773" y="3" relative="1" as="geometry">
            <mxPoint x="-26" as="offset" />
          </mxGeometry>
        </mxCell>
        <mxCell id="_N87Q6iRUAjB1oRdDqeh-17" value="" style="html=1;verticalAlign=bottom;endArrow=open;dashed=1;endSize=8;rounded=0;entryX=1.02;entryY=0.212;entryDx=0;entryDy=0;entryPerimeter=0;" parent="1" edge="1">
          <mxGeometry relative="1" as="geometry">
            <mxPoint x="730" y="218" as="sourcePoint" />
            <mxPoint x="289.9306" y="218.3599999999999" as="targetPoint" />
          </mxGeometry>
        </mxCell>
        <mxCell id="HCBwjhVuhrXocHCyDj3T-12" value="8. home" style="edgeLabel;html=1;align=center;verticalAlign=middle;resizable=0;points=[];" parent="_N87Q6iRUAjB1oRdDqeh-17" vertex="1" connectable="0">
          <mxGeometry x="0.1225" y="-7" relative="1" as="geometry">
            <mxPoint x="18" y="4" as="offset" />
          </mxGeometry>
        </mxCell>
        <mxCell id="_N87Q6iRUAjB1oRdDqeh-19" value="" style="html=1;verticalAlign=bottom;endArrow=block;rounded=0;exitX=1.02;exitY=0.292;exitDx=0;exitDy=0;exitPerimeter=0;entryX=0;entryY=0.286;entryDx=0;entryDy=0;entryPerimeter=0;" parent="1" edge="1">
          <mxGeometry width="80" relative="1" as="geometry">
            <mxPoint x="289.9306" y="276.76" as="sourcePoint" />
            <mxPoint x="730" y="277.5799999999999" as="targetPoint" />
          </mxGeometry>
        </mxCell>
        <mxCell id="HCBwjhVuhrXocHCyDj3T-13" value="13. find event" style="edgeLabel;html=1;align=center;verticalAlign=middle;resizable=0;points=[];" parent="_N87Q6iRUAjB1oRdDqeh-19" vertex="1" connectable="0">
          <mxGeometry x="0.091" y="8" relative="1" as="geometry">
            <mxPoint x="-17" y="7" as="offset" />
          </mxGeometry>
        </mxCell>
        <mxCell id="_N87Q6iRUAjB1oRdDqeh-21" value="" style="html=1;verticalAlign=bottom;endArrow=open;dashed=1;endSize=8;rounded=0;exitX=-0.015;exitY=0.355;exitDx=0;exitDy=0;exitPerimeter=0;entryX=0.994;entryY=0.361;entryDx=0;entryDy=0;entryPerimeter=0;" parent="1" edge="1">
          <mxGeometry relative="1" as="geometry">
            <mxPoint x="725.8924" y="299.9000000000001" as="sourcePoint" />
            <mxPoint x="283.55981999999995" y="299.0799999999999" as="targetPoint" />
          </mxGeometry>
        </mxCell>
        <mxCell id="HCBwjhVuhrXocHCyDj3T-14" value="16. events" style="edgeLabel;html=1;align=center;verticalAlign=middle;resizable=0;points=[];" parent="_N87Q6iRUAjB1oRdDqeh-21" vertex="1" connectable="0">
          <mxGeometry x="-0.0419" y="-6" relative="1" as="geometry">
            <mxPoint x="-8" y="5" as="offset" />
          </mxGeometry>
        </mxCell>
        <mxCell id="_N87Q6iRUAjB1oRdDqeh-22" value="" style="html=1;verticalAlign=bottom;endArrow=block;rounded=0;entryX=-0.003;entryY=0.417;entryDx=0;entryDy=0;entryPerimeter=0;exitX=1.004;exitY=0.429;exitDx=0;exitDy=0;exitPerimeter=0;" parent="1" edge="1">
          <mxGeometry width="80" relative="1" as="geometry">
            <mxPoint x="286.01012000000003" y="341.1199999999999" as="sourcePoint" />
            <mxPoint x="729.17848" y="340.26" as="targetPoint" />
          </mxGeometry>
        </mxCell>
        <mxCell id="HCBwjhVuhrXocHCyDj3T-15" value="17. reserve event" style="edgeLabel;html=1;align=center;verticalAlign=middle;resizable=0;points=[];" parent="_N87Q6iRUAjB1oRdDqeh-22" vertex="1" connectable="0">
          <mxGeometry x="0.1373" y="8" relative="1" as="geometry">
            <mxPoint x="-15" y="7" as="offset" />
          </mxGeometry>
        </mxCell>
        <mxCell id="_N87Q6iRUAjB1oRdDqeh-24" value="" style="html=1;verticalAlign=bottom;endArrow=block;rounded=0;entryX=0.003;entryY=0.569;entryDx=0;entryDy=0;exitX=1.004;exitY=0.569;exitDx=0;exitDy=0;entryPerimeter=0;exitPerimeter=0;" parent="1" edge="1">
          <mxGeometry width="80" relative="1" as="geometry">
            <mxPoint x="286.0101199999999" y="378.31999999999994" as="sourcePoint" />
            <mxPoint x="730.8215199999997" y="380.81999999999994" as="targetPoint" />
          </mxGeometry>
        </mxCell>
        <mxCell id="gpkDMAW4IRPUD0dpXp9G-7" value="21. make payment" style="edgeLabel;html=1;align=center;verticalAlign=middle;resizable=0;points=[];" parent="_N87Q6iRUAjB1oRdDqeh-24" vertex="1" connectable="0">
          <mxGeometry x="0.0372" y="-5" relative="1" as="geometry">
            <mxPoint x="9" y="-5" as="offset" />
          </mxGeometry>
        </mxCell>
        <mxCell id="_N87Q6iRUAjB1oRdDqeh-25" value="" style="html=1;verticalAlign=bottom;endArrow=open;dashed=1;endSize=8;rounded=0;" parent="1" edge="1">
          <mxGeometry relative="1" as="geometry">
            <mxPoint x="730" y="361" as="sourcePoint" />
            <mxPoint x="285" y="361" as="targetPoint" />
          </mxGeometry>
        </mxCell>
        <mxCell id="HCBwjhVuhrXocHCyDj3T-16" value="20. confirm availability" style="edgeLabel;html=1;align=center;verticalAlign=middle;resizable=0;points=[];" parent="_N87Q6iRUAjB1oRdDqeh-25" vertex="1" connectable="0">
          <mxGeometry x="-0.1099" y="-4" relative="1" as="geometry">
            <mxPoint y="2" as="offset" />
          </mxGeometry>
        </mxCell>
        <mxCell id="_N87Q6iRUAjB1oRdDqeh-26" value="" style="html=1;verticalAlign=bottom;endArrow=open;dashed=1;endSize=8;rounded=0;exitX=0;exitY=0.634;exitDx=0;exitDy=0;exitPerimeter=0;entryX=0.997;entryY=0.641;entryDx=0;entryDy=0;entryPerimeter=0;" parent="1" edge="1">
          <mxGeometry relative="1" as="geometry">
            <mxPoint x="729.9999999999998" y="400.0200000000002" as="sourcePoint" />
            <mxPoint x="284.2949100000001" y="399.48" as="targetPoint" />
          </mxGeometry>
        </mxCell>
        <mxCell id="gpkDMAW4IRPUD0dpXp9G-8" value="25. confirm reservation" style="edgeLabel;html=1;align=center;verticalAlign=middle;resizable=0;points=[];" parent="_N87Q6iRUAjB1oRdDqeh-26" vertex="1" connectable="0">
          <mxGeometry x="0.0666" y="-6" relative="1" as="geometry">
            <mxPoint x="42" y="6" as="offset" />
          </mxGeometry>
        </mxCell>
        <mxCell id="_N87Q6iRUAjB1oRdDqeh-28" value="" style="html=1;verticalAlign=bottom;endArrow=block;rounded=0;entryX=1;entryY=0.75;entryDx=0;entryDy=0;" parent="1" edge="1">
          <mxGeometry width="80" relative="1" as="geometry">
            <mxPoint x="730" y="418" as="sourcePoint" />
            <mxPoint x="285.03" y="418" as="targetPoint" />
          </mxGeometry>
        </mxCell>
        <mxCell id="gpkDMAW4IRPUD0dpXp9G-9" value="26. event details" style="edgeLabel;html=1;align=center;verticalAlign=middle;resizable=0;points=[];" parent="_N87Q6iRUAjB1oRdDqeh-28" vertex="1" connectable="0">
          <mxGeometry x="-0.0854" y="-8" relative="1" as="geometry">
            <mxPoint x="-7" y="7" as="offset" />
          </mxGeometry>
        </mxCell>
        <mxCell id="_N87Q6iRUAjB1oRdDqeh-29" value="9. create event" style="html=1;verticalAlign=bottom;endArrow=block;rounded=0;exitX=0.5;exitY=0;exitDx=0;exitDy=0;entryX=0;entryY=0.5;entryDx=0;entryDy=0;" parent="1" source="_N87Q6iRUAjB1oRdDqeh-3" target="_N87Q6iRUAjB1oRdDqeh-2" edge="1">
          <mxGeometry width="80" relative="1" as="geometry">
            <mxPoint x="500" y="-90" as="sourcePoint" />
            <mxPoint x="580" y="-90" as="targetPoint" />
          </mxGeometry>
        </mxCell>
        <mxCell id="_N87Q6iRUAjB1oRdDqeh-31" value="" style="html=1;verticalAlign=bottom;endArrow=block;rounded=0;entryX=0.099;entryY=-0.005;entryDx=0;entryDy=0;entryPerimeter=0;exitX=0.146;exitY=1;exitDx=0;exitDy=0;exitPerimeter=0;" parent="1" source="_N87Q6iRUAjB1oRdDqeh-2" target="_N87Q6iRUAjB1oRdDqeh-1" edge="1">
          <mxGeometry x="-0.3668" y="-7" width="80" relative="1" as="geometry">
            <mxPoint x="757" y="-30" as="sourcePoint" />
            <mxPoint x="850" y="-60" as="targetPoint" />
            <mxPoint as="offset" />
          </mxGeometry>
        </mxCell>
        <mxCell id="HCBwjhVuhrXocHCyDj3T-4" value="9. create event" style="edgeLabel;html=1;align=center;verticalAlign=middle;resizable=0;points=[];rotation=270;" parent="_N87Q6iRUAjB1oRdDqeh-31" vertex="1" connectable="0">
          <mxGeometry x="-0.4265" y="-6" relative="1" as="geometry">
            <mxPoint y="45" as="offset" />
          </mxGeometry>
        </mxCell>
        <mxCell id="_N87Q6iRUAjB1oRdDqeh-32" value="" style="html=1;verticalAlign=bottom;endArrow=open;dashed=1;endSize=8;rounded=0;entryX=0.355;entryY=1;entryDx=0;entryDy=0;entryPerimeter=0;exitX=0.299;exitY=0.005;exitDx=0;exitDy=0;exitPerimeter=0;" parent="1" edge="1">
          <mxGeometry x="0.1088" relative="1" as="geometry">
            <mxPoint x="778.87816" y="163.9000000000001" as="sourcePoint" />
            <mxPoint x="777.27295" y="-60" as="targetPoint" />
            <mxPoint as="offset" />
          </mxGeometry>
        </mxCell>
        <mxCell id="HCBwjhVuhrXocHCyDj3T-5" value="12. event page" style="edgeLabel;html=1;align=center;verticalAlign=middle;resizable=0;points=[];rotation=270;" parent="_N87Q6iRUAjB1oRdDqeh-32" vertex="1" connectable="0">
          <mxGeometry x="0.46" y="-7" relative="1" as="geometry">
            <mxPoint x="-12" y="47" as="offset" />
          </mxGeometry>
        </mxCell>
        <mxCell id="xxP3DDWsH-pdfewWtlYX-1" value="database" style="text;html=1;strokeColor=none;fillColor=none;align=center;verticalAlign=middle;whiteSpace=wrap;rounded=0;" parent="1" vertex="1">
          <mxGeometry x="836.92" y="1216.97" width="60" height="30" as="geometry" />
        </mxCell>
        <mxCell id="xxP3DDWsH-pdfewWtlYX-8" value="" style="html=1;verticalAlign=bottom;endArrow=open;dashed=1;endSize=8;rounded=0;entryX=0.327;entryY=1;entryDx=0;entryDy=0;entryPerimeter=0;exitX=0.323;exitY=-0.001;exitDx=0;exitDy=0;exitPerimeter=0;" parent="1" edge="1">
          <mxGeometry relative="1" as="geometry">
            <mxPoint x="779.2431800000002" y="929.7130299999999" as="sourcePoint" />
            <mxPoint x="781.54568" y="442.5" as="targetPoint" />
          </mxGeometry>
        </mxCell>
        <mxCell id="xxP3DDWsH-pdfewWtlYX-9" value="7. confirm credentials" style="edgeLabel;html=1;align=center;verticalAlign=middle;resizable=0;points=[];rotation=270;" parent="xxP3DDWsH-pdfewWtlYX-8" vertex="1" connectable="0">
          <mxGeometry x="0.0416" y="-8" relative="1" as="geometry">
            <mxPoint x="-10" y="31" as="offset" />
          </mxGeometry>
        </mxCell>
        <mxCell id="xxP3DDWsH-pdfewWtlYX-13" value="" style="html=1;verticalAlign=bottom;endArrow=open;dashed=1;endSize=8;rounded=0;entryX=0.5;entryY=1;entryDx=0;entryDy=0;exitX=0.5;exitY=0;exitDx=0;exitDy=0;" parent="1" edge="1">
          <mxGeometry relative="1" as="geometry">
            <mxPoint x="817.9200000000001" y="930" as="sourcePoint" />
            <mxPoint x="817.9200000000001" y="442.5" as="targetPoint" />
          </mxGeometry>
        </mxCell>
        <mxCell id="xxP3DDWsH-pdfewWtlYX-15" value="11. confirm creation" style="edgeLabel;html=1;align=center;verticalAlign=middle;resizable=0;points=[];rotation=270;" parent="xxP3DDWsH-pdfewWtlYX-13" vertex="1" connectable="0">
          <mxGeometry x="0.0486" y="-4" relative="1" as="geometry">
            <mxPoint x="-4" y="36" as="offset" />
          </mxGeometry>
        </mxCell>
        <mxCell id="xxP3DDWsH-pdfewWtlYX-16" value="" style="html=1;verticalAlign=bottom;endArrow=block;rounded=0;exitX=0.625;exitY=1.003;exitDx=0;exitDy=0;exitPerimeter=0;entryX=0.611;entryY=-0.003;entryDx=0;entryDy=0;entryPerimeter=0;" parent="1" edge="1">
          <mxGeometry width="80" relative="1" as="geometry">
            <mxPoint x="862.1500000000001" y="443.34000000000015" as="sourcePoint" />
            <mxPoint x="859.0732600000001" y="929.1390900000001" as="targetPoint" />
          </mxGeometry>
        </mxCell>
        <mxCell id="xxP3DDWsH-pdfewWtlYX-17" value="14. fetch events" style="edgeLabel;html=1;align=center;verticalAlign=middle;resizable=0;points=[];rotation=270;" parent="xxP3DDWsH-pdfewWtlYX-16" vertex="1" connectable="0">
          <mxGeometry x="-0.0514" y="9" relative="1" as="geometry">
            <mxPoint x="-12" y="47" as="offset" />
          </mxGeometry>
        </mxCell>
        <mxCell id="xxP3DDWsH-pdfewWtlYX-18" value="" style="html=1;verticalAlign=bottom;endArrow=open;dashed=1;endSize=8;rounded=0;entryX=0.695;entryY=1;entryDx=0;entryDy=0;entryPerimeter=0;exitX=0.688;exitY=0.002;exitDx=0;exitDy=0;exitPerimeter=0;" parent="1" edge="1">
          <mxGeometry relative="1" as="geometry">
            <mxPoint x="878.6840800000002" y="930.5739400000002" as="sourcePoint" />
            <mxPoint x="879.3188" y="442.5" as="targetPoint" />
          </mxGeometry>
        </mxCell>
        <mxCell id="xxP3DDWsH-pdfewWtlYX-19" value="15. events" style="edgeLabel;html=1;align=center;verticalAlign=middle;resizable=0;points=[];rotation=270;" parent="xxP3DDWsH-pdfewWtlYX-18" vertex="1" connectable="0">
          <mxGeometry x="-0.0396" y="-9" relative="1" as="geometry">
            <mxPoint x="-9" y="36" as="offset" />
          </mxGeometry>
        </mxCell>
        <mxCell id="xxP3DDWsH-pdfewWtlYX-23" value="" style="html=1;verticalAlign=bottom;endArrow=open;dashed=1;endSize=8;rounded=0;exitX=0.807;exitY=0.002;exitDx=0;exitDy=0;exitPerimeter=0;entryX=0.806;entryY=1.003;entryDx=0;entryDy=0;entryPerimeter=0;" parent="1" edge="1">
          <mxGeometry relative="1" as="geometry">
            <mxPoint x="922.0826200000001" y="930.5739400000002" as="sourcePoint" />
            <mxPoint x="919.71504" y="443.34000000000015" as="targetPoint" />
          </mxGeometry>
        </mxCell>
        <mxCell id="xxP3DDWsH-pdfewWtlYX-24" value="19. confirm availability" style="edgeLabel;html=1;align=center;verticalAlign=middle;resizable=0;points=[];rotation=270;" parent="xxP3DDWsH-pdfewWtlYX-23" vertex="1" connectable="0">
          <mxGeometry x="0.0112" y="-8" relative="1" as="geometry">
            <mxPoint x="-10" y="20" as="offset" />
          </mxGeometry>
        </mxCell>
        <mxCell id="xxP3DDWsH-pdfewWtlYX-25" value="" style="html=1;verticalAlign=bottom;endArrow=block;rounded=0;exitX=0.891;exitY=1;exitDx=0;exitDy=0;exitPerimeter=0;entryX=0.89;entryY=0.002;entryDx=0;entryDy=0;entryPerimeter=0;" parent="1" edge="1">
          <mxGeometry width="80" relative="1" as="geometry">
            <mxPoint x="940.99144" y="442.5" as="sourcePoint" />
            <mxPoint x="943.3774000000001" y="930.5739400000002" as="targetPoint" />
          </mxGeometry>
        </mxCell>
        <mxCell id="xxP3DDWsH-pdfewWtlYX-26" value="22. confirm payment" style="edgeLabel;html=1;align=center;verticalAlign=middle;resizable=0;points=[];rotation=270;" parent="xxP3DDWsH-pdfewWtlYX-25" vertex="1" connectable="0">
          <mxGeometry x="-0.0192" y="9" relative="1" as="geometry">
            <mxPoint x="-10" y="26" as="offset" />
          </mxGeometry>
        </mxCell>
        <mxCell id="xxP3DDWsH-pdfewWtlYX-27" value="" style="html=1;verticalAlign=bottom;endArrow=open;dashed=1;endSize=8;rounded=0;entryX=0.938;entryY=1.006;entryDx=0;entryDy=0;entryPerimeter=0;exitX=0.939;exitY=-0.003;exitDx=0;exitDy=0;exitPerimeter=0;" parent="1" edge="1">
          <mxGeometry relative="1" as="geometry">
            <mxPoint x="963.1297400000001" y="929.1390900000001" as="sourcePoint" />
            <mxPoint x="959.8619199999998" y="444.17999999999984" as="targetPoint" />
          </mxGeometry>
        </mxCell>
        <mxCell id="xxP3DDWsH-pdfewWtlYX-28" value="23. confirm reservation" style="edgeLabel;html=1;align=center;verticalAlign=middle;resizable=0;points=[];rotation=270;" parent="xxP3DDWsH-pdfewWtlYX-27" vertex="1" connectable="0">
          <mxGeometry x="-0.0033" y="-9" relative="1" as="geometry">
            <mxPoint x="-7" y="15" as="offset" />
          </mxGeometry>
        </mxCell>
        <mxCell id="xxP3DDWsH-pdfewWtlYX-29" value="" style="html=1;verticalAlign=bottom;endArrow=open;dashed=1;endSize=8;rounded=0;entryX=1;entryY=1;entryDx=0;entryDy=0;exitX=1;exitY=0;exitDx=0;exitDy=0;" parent="1" source="_N87Q6iRUAjB1oRdDqeh-4" target="_N87Q6iRUAjB1oRdDqeh-1" edge="1">
          <mxGeometry relative="1" as="geometry">
            <mxPoint x="660" y="580" as="sourcePoint" />
            <mxPoint x="580" y="580" as="targetPoint" />
          </mxGeometry>
        </mxCell>
        <mxCell id="xxP3DDWsH-pdfewWtlYX-30" value="24. event details" style="edgeLabel;html=1;align=center;verticalAlign=middle;resizable=0;points=[];rotation=270;" parent="xxP3DDWsH-pdfewWtlYX-29" vertex="1" connectable="0">
          <mxGeometry x="0.0541" y="-9" relative="1" as="geometry">
            <mxPoint x="-7" y="44" as="offset" />
          </mxGeometry>
        </mxCell>
        <mxCell id="xxP3DDWsH-pdfewWtlYX-32" value="" style="html=1;verticalAlign=bottom;endArrow=block;rounded=0;exitX=0.002;exitY=0.151;exitDx=0;exitDy=0;exitPerimeter=0;entryX=1.002;entryY=0.138;entryDx=0;entryDy=0;entryPerimeter=0;" parent="1" source="_N87Q6iRUAjB1oRdDqeh-5" target="_N87Q6iRUAjB1oRdDqeh-1" edge="1">
          <mxGeometry width="80" relative="1" as="geometry">
            <mxPoint x="1390" y="420" as="sourcePoint" />
            <mxPoint x="1470" y="420" as="targetPoint" />
          </mxGeometry>
        </mxCell>
        <mxCell id="gpkDMAW4IRPUD0dpXp9G-10" value="30. request performance report" style="edgeLabel;html=1;align=center;verticalAlign=middle;resizable=0;points=[];" parent="xxP3DDWsH-pdfewWtlYX-32" vertex="1" connectable="0">
          <mxGeometry x="0.3835" y="2" relative="1" as="geometry">
            <mxPoint x="66" as="offset" />
          </mxGeometry>
        </mxCell>
        <mxCell id="xxP3DDWsH-pdfewWtlYX-33" value="" style="html=1;verticalAlign=bottom;endArrow=open;dashed=1;endSize=8;rounded=0;entryX=-0.005;entryY=0.314;entryDx=0;entryDy=0;entryPerimeter=0;exitX=0.999;exitY=0.277;exitDx=0;exitDy=0;exitPerimeter=0;" parent="1" source="_N87Q6iRUAjB1oRdDqeh-1" target="_N87Q6iRUAjB1oRdDqeh-5" edge="1">
          <mxGeometry relative="1" as="geometry">
            <mxPoint x="1020" y="239" as="sourcePoint" />
            <mxPoint x="1190" y="420" as="targetPoint" />
          </mxGeometry>
        </mxCell>
        <mxCell id="gpkDMAW4IRPUD0dpXp9G-11" value="31. performance report" style="edgeLabel;html=1;align=center;verticalAlign=middle;resizable=0;points=[];" parent="xxP3DDWsH-pdfewWtlYX-33" vertex="1" connectable="0">
          <mxGeometry x="-0.1287" y="2" relative="1" as="geometry">
            <mxPoint x="12" as="offset" />
          </mxGeometry>
        </mxCell>
        <mxCell id="xxP3DDWsH-pdfewWtlYX-34" value="" style="html=1;verticalAlign=bottom;endArrow=block;rounded=0;exitX=-0.002;exitY=0.474;exitDx=0;exitDy=0;exitPerimeter=0;entryX=1.008;entryY=0.412;entryDx=0;entryDy=0;entryPerimeter=0;" parent="1" source="_N87Q6iRUAjB1oRdDqeh-5" target="_N87Q6iRUAjB1oRdDqeh-1" edge="1">
          <mxGeometry width="80" relative="1" as="geometry">
            <mxPoint x="1330" y="410" as="sourcePoint" />
            <mxPoint x="1020" y="285" as="targetPoint" />
          </mxGeometry>
        </mxCell>
        <mxCell id="gpkDMAW4IRPUD0dpXp9G-12" value="32. system maintenance" style="edgeLabel;html=1;align=center;verticalAlign=middle;resizable=0;points=[];" parent="xxP3DDWsH-pdfewWtlYX-34" vertex="1" connectable="0">
          <mxGeometry x="0.0842" y="-4" relative="1" as="geometry">
            <mxPoint x="7" y="4" as="offset" />
          </mxGeometry>
        </mxCell>
        <mxCell id="xxP3DDWsH-pdfewWtlYX-35" value="system" style="text;html=1;resizable=0;autosize=1;align=center;verticalAlign=middle;points=[];fillColor=none;strokeColor=none;rounded=0;" parent="1" vertex="1">
          <mxGeometry x="841.92" y="410" width="50" height="20" as="geometry" />
        </mxCell>
        <mxCell id="xxP3DDWsH-pdfewWtlYX-36" value="admin" style="text;html=1;resizable=0;autosize=1;align=center;verticalAlign=middle;points=[];fillColor=none;strokeColor=none;rounded=0;" parent="1" vertex="1">
          <mxGeometry x="1380" y="410" width="50" height="20" as="geometry" />
        </mxCell>
        <mxCell id="0zCVy8Xr3c0szYGOjKDY-1" value="" style="html=1;verticalAlign=bottom;endArrow=block;rounded=0;exitX=0.563;exitY=1.004;exitDx=0;exitDy=0;exitPerimeter=0;" parent="1" edge="1">
          <mxGeometry x="0.2413" width="80" relative="1" as="geometry">
            <mxPoint x="862.16527" y="-59.200000000000045" as="sourcePoint" />
            <mxPoint x="862" y="160" as="targetPoint" />
            <mxPoint as="offset" />
          </mxGeometry>
        </mxCell>
        <mxCell id="HCBwjhVuhrXocHCyDj3T-6" value="27. monitor event" style="edgeLabel;html=1;align=center;verticalAlign=middle;resizable=0;points=[];rotation=270;" parent="0zCVy8Xr3c0szYGOjKDY-1" vertex="1" connectable="0">
          <mxGeometry x="0.146" y="-4" relative="1" as="geometry">
            <mxPoint y="-28" as="offset" />
          </mxGeometry>
        </mxCell>
        <mxCell id="0zCVy8Xr3c0szYGOjKDY-2" value="" style="html=1;verticalAlign=bottom;endArrow=open;dashed=1;endSize=8;rounded=0;exitX=0.656;exitY=0.002;exitDx=0;exitDy=0;exitPerimeter=0;entryX=0.75;entryY=1;entryDx=0;entryDy=0;" parent="1" edge="1">
          <mxGeometry x="0.1088" relative="1" as="geometry">
            <mxPoint x="878.63904" y="163.05999999999995" as="sourcePoint" />
            <mxPoint x="879.7175" y="-60" as="targetPoint" />
            <mxPoint as="offset" />
          </mxGeometry>
        </mxCell>
        <mxCell id="HCBwjhVuhrXocHCyDj3T-7" value="28. event details" style="edgeLabel;html=1;align=center;verticalAlign=middle;resizable=0;points=[];rotation=270;" parent="0zCVy8Xr3c0szYGOjKDY-2" vertex="1" connectable="0">
          <mxGeometry x="0.1718" y="-7" relative="1" as="geometry">
            <mxPoint x="-7" y="8" as="offset" />
          </mxGeometry>
        </mxCell>
        <mxCell id="0zCVy8Xr3c0szYGOjKDY-3" value="" style="html=1;verticalAlign=bottom;endArrow=block;rounded=0;exitX=0.951;exitY=0.996;exitDx=0;exitDy=0;exitPerimeter=0;" parent="1" edge="1">
          <mxGeometry x="0.2413" width="80" relative="1" as="geometry">
            <mxPoint x="899.8297899999998" y="-60.799999999999955" as="sourcePoint" />
            <mxPoint x="900" y="160" as="targetPoint" />
            <mxPoint as="offset" />
          </mxGeometry>
        </mxCell>
        <mxCell id="HCBwjhVuhrXocHCyDj3T-8" value="29. admit guests" style="edgeLabel;html=1;align=center;verticalAlign=middle;resizable=0;points=[];rotation=270;" parent="0zCVy8Xr3c0szYGOjKDY-3" vertex="1" connectable="0">
          <mxGeometry x="0.0526" y="9" relative="1" as="geometry">
            <mxPoint x="-8" y="-16" as="offset" />
          </mxGeometry>
        </mxCell>
        <mxCell id="HCBwjhVuhrXocHCyDj3T-17" value="" style="html=1;verticalAlign=bottom;endArrow=block;rounded=0;exitX=0.565;exitY=1.004;exitDx=0;exitDy=0;exitPerimeter=0;" parent="1" edge="1">
          <mxGeometry x="0.2413" width="80" relative="1" as="geometry">
            <mxPoint x="918.6738500000001" y="-59.200000000000045" as="sourcePoint" />
            <mxPoint x="919" y="160" as="targetPoint" />
            <mxPoint as="offset" />
          </mxGeometry>
        </mxCell>
        <mxCell id="HCBwjhVuhrXocHCyDj3T-18" value="29. admit guests" style="edgeLabel;html=1;align=center;verticalAlign=middle;resizable=0;points=[];rotation=270;" parent="HCBwjhVuhrXocHCyDj3T-17" vertex="1" connectable="0">
          <mxGeometry x="0.0526" y="9" relative="1" as="geometry">
            <mxPoint x="-8" y="-16" as="offset" />
          </mxGeometry>
        </mxCell>
        <mxCell id="HCBwjhVuhrXocHCyDj3T-19" value="" style="html=1;verticalAlign=bottom;endArrow=block;rounded=0;exitX=0;exitY=1;exitDx=0;exitDy=0;entryX=0;entryY=0;entryDx=0;entryDy=0;" parent="1" edge="1">
          <mxGeometry width="80" relative="1" as="geometry">
            <mxPoint x="724" y="442.5" as="sourcePoint" />
            <mxPoint x="720.5900000000001" y="930" as="targetPoint" />
          </mxGeometry>
        </mxCell>
        <mxCell id="HCBwjhVuhrXocHCyDj3T-20" value="2. save credentials" style="edgeLabel;html=1;align=center;verticalAlign=middle;resizable=0;points=[];rotation=270;" parent="HCBwjhVuhrXocHCyDj3T-19" vertex="1" connectable="0">
          <mxGeometry x="-0.0514" y="9" relative="1" as="geometry">
            <mxPoint x="-12" y="39" as="offset" />
          </mxGeometry>
        </mxCell>
        <mxCell id="HCBwjhVuhrXocHCyDj3T-21" value="" style="html=1;verticalAlign=bottom;endArrow=open;dashed=1;endSize=8;rounded=0;entryX=0.114;entryY=0.994;entryDx=0;entryDy=0;entryPerimeter=0;exitX=0.123;exitY=0;exitDx=0;exitDy=0;exitPerimeter=0;" parent="1" edge="1">
          <mxGeometry relative="1" as="geometry">
            <mxPoint x="741.1111800000001" y="930" as="sourcePoint" />
            <mxPoint x="741.21776" y="440.82000000000016" as="targetPoint" />
          </mxGeometry>
        </mxCell>
        <mxCell id="HCBwjhVuhrXocHCyDj3T-22" value="3. prompt confirmation" style="edgeLabel;html=1;align=center;verticalAlign=middle;resizable=0;points=[];rotation=270;" parent="HCBwjhVuhrXocHCyDj3T-21" vertex="1" connectable="0">
          <mxGeometry x="0.0486" y="-4" relative="1" as="geometry">
            <mxPoint x="-5" y="31" as="offset" />
          </mxGeometry>
        </mxCell>
        <mxCell id="HCBwjhVuhrXocHCyDj3T-23" value="" style="html=1;verticalAlign=bottom;endArrow=block;rounded=0;exitX=0.111;exitY=0.997;exitDx=0;exitDy=0;entryX=0.118;entryY=0.001;entryDx=0;entryDy=0;exitPerimeter=0;entryPerimeter=0;" parent="1" source="_N87Q6iRUAjB1oRdDqeh-1" target="_N87Q6iRUAjB1oRdDqeh-4" edge="1">
          <mxGeometry width="80" relative="1" as="geometry">
            <mxPoint x="740" y="452.5" as="sourcePoint" />
            <mxPoint x="736.5900000000004" y="940" as="targetPoint" />
          </mxGeometry>
        </mxCell>
        <mxCell id="HCBwjhVuhrXocHCyDj3T-24" value="6. validate credentials" style="edgeLabel;html=1;align=center;verticalAlign=middle;resizable=0;points=[];rotation=270;" parent="HCBwjhVuhrXocHCyDj3T-23" vertex="1" connectable="0">
          <mxGeometry x="-0.0514" y="9" relative="1" as="geometry">
            <mxPoint x="-9" y="33" as="offset" />
          </mxGeometry>
        </mxCell>
        <mxCell id="HCBwjhVuhrXocHCyDj3T-25" value="" style="html=1;verticalAlign=bottom;endArrow=block;rounded=0;exitX=0.25;exitY=1;exitDx=0;exitDy=0;entryX=0.25;entryY=0;entryDx=0;entryDy=0;" parent="1" source="_N87Q6iRUAjB1oRdDqeh-1" target="_N87Q6iRUAjB1oRdDqeh-4" edge="1">
          <mxGeometry width="80" relative="1" as="geometry">
            <mxPoint x="770.39624" y="451.65999999999985" as="sourcePoint" />
            <mxPoint x="769.7078800000002" y="940.2869700000001" as="targetPoint" />
          </mxGeometry>
        </mxCell>
        <mxCell id="HCBwjhVuhrXocHCyDj3T-26" value="10. update event" style="edgeLabel;html=1;align=center;verticalAlign=middle;resizable=0;points=[];rotation=270;" parent="HCBwjhVuhrXocHCyDj3T-25" vertex="1" connectable="0">
          <mxGeometry x="-0.0514" y="9" relative="1" as="geometry">
            <mxPoint x="-9" y="43" as="offset" />
          </mxGeometry>
        </mxCell>
        <mxCell id="HCBwjhVuhrXocHCyDj3T-27" value="" style="html=1;verticalAlign=bottom;endArrow=block;rounded=0;exitX=0.543;exitY=0.997;exitDx=0;exitDy=0;exitPerimeter=0;entryX=0.554;entryY=-0.004;entryDx=0;entryDy=0;entryPerimeter=0;" parent="1" edge="1">
          <mxGeometry width="80" relative="1" as="geometry">
            <mxPoint x="899.6951200000001" y="441.65999999999985" as="sourcePoint" />
            <mxPoint x="903.0756400000002" y="928.85212" as="targetPoint" />
          </mxGeometry>
        </mxCell>
        <mxCell id="HCBwjhVuhrXocHCyDj3T-28" value="18. check availability" style="edgeLabel;html=1;align=center;verticalAlign=middle;resizable=0;points=[];rotation=270;" parent="HCBwjhVuhrXocHCyDj3T-27" vertex="1" connectable="0">
          <mxGeometry x="-0.0514" y="9" relative="1" as="geometry">
            <mxPoint x="-12" y="36" as="offset" />
          </mxGeometry>
        </mxCell>
        <mxCell id="HCBwjhVuhrXocHCyDj3T-29" value="" style="html=1;verticalAlign=bottom;endArrow=block;rounded=0;entryX=0.833;entryY=0.004;entryDx=0;entryDy=0;entryPerimeter=0;exitX=0.844;exitY=1;exitDx=0;exitDy=0;exitPerimeter=0;" parent="1" edge="1">
          <mxGeometry width="80" relative="1" as="geometry">
            <mxPoint x="986.12096" y="442.5" as="sourcePoint" />
            <mxPoint x="985.3797800000002" y="931.14788" as="targetPoint" />
          </mxGeometry>
        </mxCell>
        <mxCell id="HCBwjhVuhrXocHCyDj3T-30" value="22. confirm payment" style="edgeLabel;html=1;align=center;verticalAlign=middle;resizable=0;points=[];rotation=270;" parent="HCBwjhVuhrXocHCyDj3T-29" vertex="1" connectable="0">
          <mxGeometry x="-0.0192" y="9" relative="1" as="geometry">
            <mxPoint x="-10" y="26" as="offset" />
          </mxGeometry>
        </mxCell>
        <mxCell id="gpkDMAW4IRPUD0dpXp9G-1" value="" style="html=1;verticalAlign=bottom;endArrow=block;rounded=0;exitX=0.316;exitY=1.001;exitDx=0;exitDy=0;exitPerimeter=0;entryX=0.25;entryY=0;entryDx=0;entryDy=0;" parent="1" source="_N87Q6iRUAjB1oRdDqeh-2" target="_N87Q6iRUAjB1oRdDqeh-1" edge="1">
          <mxGeometry x="0.2413" width="80" relative="1" as="geometry">
            <mxPoint x="872.16527" y="-49.200000000000045" as="sourcePoint" />
            <mxPoint x="872" y="170" as="targetPoint" />
            <mxPoint as="offset" />
          </mxGeometry>
        </mxCell>
        <mxCell id="gpkDMAW4IRPUD0dpXp9G-2" value="a) invite guests" style="edgeLabel;html=1;align=center;verticalAlign=middle;resizable=0;points=[];rotation=270;" parent="gpkDMAW4IRPUD0dpXp9G-1" vertex="1" connectable="0">
          <mxGeometry x="0.146" y="-4" relative="1" as="geometry">
            <mxPoint y="-28" as="offset" />
          </mxGeometry>
        </mxCell>
        <mxCell id="gpkDMAW4IRPUD0dpXp9G-3" value="" style="html=1;verticalAlign=bottom;endArrow=block;rounded=0;exitX=0.552;exitY=1.005;exitDx=0;exitDy=0;exitPerimeter=0;entryX=0.551;entryY=0;entryDx=0;entryDy=0;entryPerimeter=0;" parent="1" edge="1">
          <mxGeometry width="80" relative="1" as="geometry">
            <mxPoint x="841.1596799999998" y="443.9000000000001" as="sourcePoint" />
            <mxPoint x="841.2336600000003" y="930" as="targetPoint" />
          </mxGeometry>
        </mxCell>
        <mxCell id="gpkDMAW4IRPUD0dpXp9G-4" value="b) save guest invitation" style="edgeLabel;html=1;align=center;verticalAlign=middle;resizable=0;points=[];rotation=270;" parent="gpkDMAW4IRPUD0dpXp9G-3" vertex="1" connectable="0">
          <mxGeometry x="-0.0514" y="9" relative="1" as="geometry">
            <mxPoint x="-13" y="26" as="offset" />
          </mxGeometry>
        </mxCell>
        <mxCell id="gpkDMAW4IRPUD0dpXp9G-5" value="" style="html=1;verticalAlign=bottom;endArrow=block;rounded=0;entryX=0.995;entryY=0.351;entryDx=0;entryDy=0;entryPerimeter=0;exitX=-0.004;exitY=0.352;exitDx=0;exitDy=0;exitPerimeter=0;" parent="1" edge="1">
          <mxGeometry width="80" relative="1" as="geometry">
            <mxPoint x="728.90464" y="322.0600000000002" as="sourcePoint" />
            <mxPoint x="283.80485" y="319.28" as="targetPoint" />
          </mxGeometry>
        </mxCell>
        <mxCell id="gpkDMAW4IRPUD0dpXp9G-6" value="c) send invitation" style="edgeLabel;html=1;align=center;verticalAlign=middle;resizable=0;points=[];" parent="gpkDMAW4IRPUD0dpXp9G-5" vertex="1" connectable="0">
          <mxGeometry x="0.1373" y="8" relative="1" as="geometry">
            <mxPoint x="46" y="-9" as="offset" />
          </mxGeometry>
        </mxCell>
      </root>
    </mxGraphModel>
  </diagram>
</mxfile>
